<svg id="Layer_1" data-name="Layer 1" xmlns="http://www.w3.org/2000/svg" viewBox="0 0 1400 150">
  <defs>
    <style>
      .cls-1, .cls-2 {
        fill: #ffffff;
      }

      .cls-2 {
        stroke: #ffffff;
        stroke-miterlimit: 10;
        stroke-width: 6px;
      }
    </style>
  </defs>
  <title>Hotchkiss Record Title</title>
  <g>
    <g>
      <path class="cls-1" d="M363.4308,61.61135v41.89941h-7.36816V61.61135H344.837V54.68654h29.7876v6.92481Z"/>
      <path class="cls-1" d="M388.57,73.78615h21.06055V54.68654h7.36768v48.82422h-7.36768V80.71145H388.57v22.79931h-7.36767V54.68654H388.57Z"/>
      <path class="cls-1" d="M455.64028,61.61135H436.06606V73.34328h19.00488v6.9253H436.06606V96.58547h19.57422v6.92529h-26.9419V54.68654h26.9419Z"/>
      <path class="cls-1" d="M483.46694,54.68313h17.09619V71.13186h10.87939V54.68313h17.09619v48.82763H511.44252V86.544H500.56313v16.96679H483.46694Z"/>
      <path class="cls-1" d="M588.76577,79.22658c0,15.67139-12.10987,25.06153-27.00391,25.06153-14.89453,0-27.0044-9.39014-27.0044-25.06153,0-15.34765,12.17432-25.3208,27.0044-25.3208C576.59145,53.90578,588.76577,63.87893,588.76577,79.22658Zm-36.13526.25879c0,5.56934,3.75635,9.39014,9.13135,9.39014,5.37451,0,9.13086-3.8208,9.13086-9.39014,0-5.18066-3.49707-9.51953-9.13086-9.51953C556.12758,69.96584,552.63051,74.30471,552.63051,79.48537Z"/>
      <path class="cls-1" d="M591.68178,54.68313h37.30078V70.54885l-9.77832-.45313v33.415H601.46108v-33.415l-9.7793.45313Z"/>
      <path class="cls-1" d="M669.84682,74.499c-2.84863-2.65527-6.41113-4.92187-10.42578-4.92187a9.56335,9.56335,0,0,0-9.64942,9.51953,9.74655,9.74655,0,0,0,9.90821,9.51953c4.08008,0,7.31836-1.74853,10.167-4.5332l-.51758,18.26221c-2.84961,1.35986-9.45508,1.94287-12.62793,1.94287a24.46622,24.46622,0,0,1-24.80273-24.7378,25.38747,25.38747,0,0,1,25.51465-25.64453,37.106,37.106,0,0,1,11.916,2.00781Z"/>
      <path class="cls-1" d="M676.131,54.68313h17.0957V71.13186h10.87989V54.68313h17.0957v48.82763h-17.0957V86.544H693.2267v16.96679H676.131Z"/>
      <path class="cls-1" d="M729.299,54.68313H746.59l-.38867,21.17578H746.59a19.118,19.118,0,0,1,2.46094-5.5044l8.54785-15.67138h19.36231L761.67885,78.44924l16.90137,25.06152H757.98744L749.5685,88.74611c-1.03613-1.87841-2.58984-3.6914-2.97852-5.69921h-.38867l.38867,20.46386H729.299Z"/>
      <path class="cls-1" d="M782.46889,54.68313h17.74316v48.82763H782.46889Z"/>
      <path class="cls-1" d="M811.35268,86.0259l.90625.7124c3.17285,2.46094,6.99414,4.46826,11.07422,4.46826,1.748,0,4.53222-.7124,4.53222-2.91406s-2.33105-2.396-3.95019-2.71973l-3.56152-.64746c-6.92872-1.23047-12.75684-5.31054-12.75684-12.95166,0-11.59179,10.55566-18.06787,21.17578-18.06787a29.06166,29.06166,0,0,1,15.47754,4.27393l-4.792,12.49853c-3.04395-2.07226-6.47656-3.69091-10.29688-3.69091-1.55468,0-3.82129.58251-3.82129,2.58984,0,1.81348,2.20215,2.07226,3.56153,2.39648l4.01562.90625c7.51172,1.68409,12.95117,5.69873,12.95117,13.9878,0,11.65673-10.62011,17.42041-21.17578,17.42041a43.98725,43.98725,0,0,1-18.78027-4.46875Z"/>
      <path class="cls-1" d="M854.2892,86.0259l.90723.7124c3.17285,2.46094,6.99414,4.46826,11.07324,4.46826,1.749,0,4.5332-.7124,4.5332-2.91406s-2.33105-2.396-3.95019-2.71973l-3.56152-.64746c-6.92969-1.23047-12.75782-5.31054-12.75782-12.95166,0-11.59179,10.55567-18.06787,21.17676-18.06787a29.06073,29.06073,0,0,1,15.47656,4.27393l-4.792,12.49853c-3.04394-2.07226-6.47558-3.69091-10.29687-3.69091-1.55371,0-3.82032.58251-3.82032,2.58984,0,1.81348,2.20215,2.07226,3.56153,2.39648l4.01562.90625c7.51172,1.68409,12.95117,5.69873,12.95117,13.9878,0,11.65673-10.62011,17.42041-21.17578,17.42041a43.98725,43.98725,0,0,1-18.78027-4.46875Z"/>
      <path class="cls-1" d="M932.671,82.70363l15.11523,20.80713h-9.01269L924.82827,83.52541h-1.32813v19.98535H916.132V54.68654h8.63281q9.67676,0,13.97754,3.63623a13.3607,13.3607,0,0,1,4.74316,10.68848,13.87281,13.87281,0,0,1-2.97265,8.91748A13.24866,13.24866,0,0,1,932.671,82.70363Zm-9.1709-5.59716H925.84q10.46631,0,10.46778-8.00049,0-7.49415-10.18262-7.49463h-2.625Z"/>
      <path class="cls-1" d="M982.06362,61.61135H962.4894V73.34328h19.00488v6.9253H962.4894V96.58547h19.57422v6.92529H955.12123V54.68654h26.94239Z"/>
      <path class="cls-1" d="M1027.82045,57.31106v8.72753q-6.38819-5.34375-13.21777-5.34423a16.83136,16.83136,0,0,0-12.68066,5.40771,18.22837,18.22837,0,0,0-5.18555,13.15479A17.78949,17.78949,0,0,0,1001.922,92.2217a17.12552,17.12552,0,0,0,12.71191,5.28076,15.59662,15.59662,0,0,0,6.60937-1.26465,19.05686,19.05686,0,0,0,3.14649-1.70752,37.17744,37.17744,0,0,0,3.43066-2.59326v8.88574a26.6079,26.6079,0,0,1-13.28125,3.57325A24.50249,24.50249,0,0,1,996.673,97.09133a24.21733,24.21733,0,0,1-7.36816-17.77149,25.07491,25.07491,0,0,1,6.166-16.6333,24.5535,24.5535,0,0,1,19.6377-8.94873A24.92478,24.92478,0,0,1,1027.82045,57.31106Z"/>
      <path class="cls-1" d="M1034.36635,78.877a23.91078,23.91078,0,0,1,7.55762-17.708,24.87606,24.87606,0,0,1,18.08789-7.39942,25.53372,25.53372,0,0,1,25.39258,25.39209,24.0077,24.0077,0,0,1-7.52637,17.8667,25.79993,25.79993,0,0,1-35.22656.82227Q1034.36635,90.60915,1034.36635,78.877Zm7.43164.09522a17.6459,17.6459,0,0,0,5.43848,13.313,18.01566,18.01566,0,0,0,25.45605-.09522,17.97906,17.97906,0,0,0,5.28028-13.09131,17.89039,17.89039,0,0,0-5.2168-13.09179,18.208,18.208,0,0,0-25.709,0A17.61336,17.61336,0,0,0,1041.798,78.97219Z"/>
      <path class="cls-1" d="M1111.20815,82.70363l15.11523,20.80713h-9.01269l-13.94532-19.98535h-1.32812v19.98535h-7.36816V54.68654h8.63281q9.67675,0,13.97754,3.63623a13.3607,13.3607,0,0,1,4.74316,10.68848,13.87276,13.87276,0,0,1-2.97266,8.91748A13.24861,13.24861,0,0,1,1111.20815,82.70363Zm-9.1709-5.59716h2.33984q10.46631,0,10.46778-8.00049,0-7.49415-10.18262-7.49463h-2.625Z"/>
      <path class="cls-1" d="M1133.65932,103.51076V54.68654h10.24609a37.28356,37.28356,0,0,1,11.63672,1.45459,21.77815,21.77815,0,0,1,8.31641,4.83789q7.55712,6.8943,7.55762,18.11963,0,11.25805-7.874,18.21436a22.98081,22.98081,0,0,1-8.28418,4.83789,37.70653,37.70653,0,0,1-11.47949,1.35986Zm7.36816-6.92529h3.32032a27.71064,27.71064,0,0,0,8.2539-1.04346,16.76123,16.76123,0,0,0,11.38379-16.44336,16.96476,16.96476,0,0,0-5.376-13.02832q-4.83839-4.459-14.26172-4.459h-3.32032Z"/>
    </g>
    <g>
      <path class="cls-1" d="M315.36151,88.74245a.62709.62709,0,0,1-.3604.39644,8.90076,8.90076,0,0,0-.82171.51177,1.44159,1.44159,0,0,0-.64873,1.074,8.70076,8.70076,0,0,0,.16579,2.1624,3.21476,3.21476,0,0,1-.10091,2.09752c-.14416.31716-.23787.692-.3604,1.038a2.16233,2.16233,0,0,1-.53339.80729c-.1802.1802-.39644.32436-.59106.49015a4.24533,4.24533,0,0,1-1.67225.80729c-.43248.11533-.87937.209-1.31906.30995a3.423,3.423,0,0,1-.75684.14416c-.382.05045-.8073.07928-1.15328.12974s-.61268.13695-1.01633.19461-.81451.06487-1.21815.12254c-.65593.0865-1.30465.25228-1.975.28832a2.16244,2.16244,0,0,0-1.11724.28831,2.9264,2.9264,0,0,0-1.29023,1.802,7.59676,7.59676,0,0,0-.2667,2.23448c.02883.42527.02883.85054.07208,1.283a5.76653,5.76653,0,0,1-.11533,1.665,1.95332,1.95332,0,0,0,.1802,1.11724c.05045.13695.15137.25949.21624.39644a7.15729,7.15729,0,0,0,1.26861,2.011.80018.80018,0,0,1,.1802.26669,2.16239,2.16239,0,0,0,.62709.79288c.5406.49736,1.05237,1.01633,1.593,1.51369.41085.382.83613.73521,1.2614,1.10282.555.48293,1.11.96587,1.665,1.4416.41086.346.82892.67754,1.23978,1.03073.91541.78568,1.74433,1.66506,2.62371,2.494a25.31357,25.31357,0,0,1,2.45792,2.64534c.24507.32435.5406.72079.7208.98749s.31716.51177.51177.82171.37481.555.58385.92982.3676.77847.56943,1.15329a6.89144,6.89144,0,0,1,.7208,1.57133,3.68346,3.68346,0,0,1,.21624.7208,5.62232,5.62232,0,0,1-.28111,2.73183.65592.65592,0,0,1-.77126.50455,6.66539,6.66539,0,0,1-.82171-.1874,7.88084,7.88084,0,0,0-.8073-.22345,4.1659,4.1659,0,0,1-1.33347-.47573,4.47588,4.47588,0,0,0-1.31907-.50455,5.14639,5.14639,0,0,1-1.22535-.41086,11.60376,11.60376,0,0,0-2.57326-.83613,2.659,2.659,0,0,1-.43247-.137,20.57229,20.57229,0,0,0-3.48145-1.13887,2.22617,2.22617,0,0,1-.24507-.07929c-1.16769-.38923-2.3498-.70638-3.54633-.98749a10.40694,10.40694,0,0,0-1.05237-.28111c-.85774-.10812-1.68666-.346-2.53721-.46852a6.42207,6.42207,0,0,1-1.49926-.37482,30.09752,30.09752,0,0,1-3.67607-.7208c-1.09562-.25228-2.20565-.38922-3.30127-.61988-.46131-.10091-.88658-.18741-1.44159-.27391s-1.11-.14416-1.66505-.21624l-1.5353-.18741a5.67948,5.67948,0,0,1-.82892-.10091,15.7099,15.7099,0,0,0-1.593-.24507c-.8073-.13695-1.629-.07208-2.4291-.2739-.24507-.05766-.51177-.06487-.764-.10812-.44689-.07929-.88658-.20182-1.33347-.24507-.94425-.09371-1.88849-.12253-2.82553-.25949a5.63728,5.63728,0,0,0-1.09562-.07208,18.7037,18.7037,0,0,0-1.92453-.19462h-1.99662c-.29553.0072-.59826.08649-.89379.08649a1.51308,1.51308,0,0,1-.31715,0,3.91379,3.91379,0,0,0-1.09562.09371c-.555.08649-1.11.15137-1.66505.23786a1.00962,1.00962,0,0,0-.30273.09371,8.282,8.282,0,0,1-1.67946.43249.274.274,0,0,1-.12254,0,.35328.35328,0,0,1-.05046-.11533v-2.58767a.53331.53331,0,0,1,0-.12974c.27391-1.21815.41086-2.45793.7208-3.66886.07207-.28833.1874-.56944.26669-.85776a16.8087,16.8087,0,0,1,.94425-3.14268,1.96092,1.96092,0,0,0,.10091-.30994,12.68683,12.68683,0,0,1,.43248-1.34789c.44689-1.00191.73522-2.06869,1.21815-3.0634.23065-.49735.3532-.92262.64151-1.4416a15.10247,15.10247,0,0,0,.7208-1.60017,15.46846,15.46846,0,0,1,.901-2.06869c.22345-.36762.33878-.79289.52618-1.17491.28111-.56222.56223-1.11724.87938-1.65784a31.44393,31.44393,0,0,0,1.4416-2.95527c.46851-1.01633.85775-2.06869,1.283-3.10665a.96569.96569,0,0,1,.10091-.23786,4.38256,4.38256,0,0,0,.56222-1.29744c.30273-.79288.47573-1.61459.7208-2.41468a3.17886,3.17886,0,0,0,.0937-.764,15.79232,15.79232,0,0,0-.30995-2.76067,1.72963,1.72963,0,0,0-.10091-.37481.66311.66311,0,0,0-.62709-.47573h-.61267a2.53717,2.53717,0,0,0-1.5353.40365,3.53426,3.53426,0,0,1-.3532.15136c-.32435.173-.64871.33878-.96587.52619-.20183.11533-.37481.28832-.59106.38923a1.36968,1.36968,0,0,0-.5406.4469,1.16055,1.16055,0,0,1-.21624.23786,6.40773,6.40773,0,0,0-1.30464,1.65063,6.61683,6.61683,0,0,0-.61269,1.13166,8.77762,8.77762,0,0,1-.67755,1.08841,4.815,4.815,0,0,0-.43248.865,11.16541,11.16541,0,0,1-.91542,2.27052.591.591,0,0,0-.07209.24507,10.66777,10.66777,0,0,1-.37481,1.56413,17.56855,17.56855,0,0,0-.4469,1.81642,4.1086,4.1086,0,0,1-.25948,1.12444.4253.4253,0,0,0-.04325.24507.98036.98036,0,0,1-.08649.49735,17.44744,17.44744,0,0,0-.47573,1.802c-.10813.61269-.12975,1.23978-.19462,1.85966a1.29108,1.29108,0,0,1,0,.18741c-.22345.901-.4541,1.79479-.67034,2.69579a7.74126,7.74126,0,0,0-.46851,2.06149.92294.92294,0,0,1-.09371.30994,11.5313,11.5313,0,0,0-.52618,1.86686.7784.7784,0,0,1-.137.30275.99472.99472,0,0,0-.15137.555.64165.64165,0,0,1-.05766.30994,9.82457,9.82457,0,0,0-.59827,1.34789,18.02075,18.02075,0,0,0-.64871,1.88128,1.3478,1.3478,0,0,1-.14416.3604,12.65136,12.65136,0,0,0-.81451,1.4416,3.91381,3.91381,0,0,1-.30994.44689,12.5277,12.5277,0,0,0-2.52279.49736,1.77321,1.77321,0,0,1-.382.06487,4.32272,4.32272,0,0,0-.47569-.02162c-.937.22345-1.88129.45411-2.81112.7208a6.285,6.285,0,0,0-1.44159.38923.36761.36761,0,0,1-.49736-.09371c.036-.28111.04325-.5406.09371-.79288a1.16049,1.16049,0,0,1,.1874-.46852,5.39832,5.39832,0,0,0,.65593-1.2614,15.59228,15.59228,0,0,1,.6271-1.48484,5.6364,5.6364,0,0,0,.50455-1.18211c.23787-.8938.63431-1.81642.83613-2.64533s.43969-1.65784.60547-2.50118c.26669-1.33347.5406-2.65974.87938-3.9716.10091-.39644.209-.79288.31715-1.18211.173-.64151.25228-1.31184.3604-1.96057s.1874-1.31906.26669-1.975c.10812-.85776.0937-1.72271.16578-2.58047.0865-.7208-.01442-1.4416.0865-2.16239a1.4417,1.4417,0,0,0,0-.51177,4.26731,4.26731,0,0,1-.036-1.16049,4.25807,4.25807,0,0,0,0-.57664c-.06487-.7208-.04324-1.33348-.137-2.1624s-.12253-1.67225-.1802-2.50838v-.12975a27.65628,27.65628,0,0,1-.23786-2.88319,7.80031,7.80031,0,0,0-.1802-1.66505,17.032,17.032,0,0,1-.346-2.23447,1.75882,1.75882,0,0,0-.07928-.43969,3.60415,3.60415,0,0,1-.173-1.14607,3.46912,3.46912,0,0,0,0-.51177q-.2595-1.32987-.5406-2.65975a9.22105,9.22105,0,0,1-.27391-1.2614c-.036-.58385-.137-1.15327-.21624-1.72991a13.04652,13.04652,0,0,0-.41806-2.22007,5.28332,5.28332,0,0,1-.28111-1.38393c-.036-1.05237-.27391-2.09032-.27391-3.1499a3.01235,3.01235,0,0,0-.05767-.382,3.91374,3.91374,0,0,1-.07208-.64151c.04326-.901-.10091-1.81641-.10812-2.69579s.05767-1.72992.12254-2.63091.22344-1.7948.3604-2.68859a21.62546,21.62546,0,0,1,.83609-2.96248c.0865-.28111.20183-.519.31716-.84333s.22344-.64872.3604-.96587c.25949-.61269.58385-1.20374.79288-1.83084a4.08733,4.08733,0,0,1,.51177-1.03074,1.56391,1.56391,0,0,0,.137-.21624,19.46,19.46,0,0,1,1.21815-2.19843,2.33616,2.33616,0,0,0,.20182-.33157,11.43128,11.43128,0,0,1,1.4416-2.03986c.23066-.33157.51177-.63431.77126-.95146.07929-.10091.14417-.21624.23066-.30994a18.06932,18.06932,0,0,0,1.39835-1.4416.78567.78567,0,0,1,.209-.14416l.48294-.32436,2.31377-1.53531a9.7097,9.7097,0,0,1,1.75153-.82892,4.325,4.325,0,0,1,1.16049-.38923,1.68675,1.68675,0,0,0,.43969-.173,8.82988,8.82988,0,0,1,.91542-2.11194c.28831-.49015.59106-.96587.87937-1.4416a2.76841,2.76841,0,0,1,.36761-.43969,9.37094,9.37094,0,0,1,2.06148-1.4416,1.39856,1.39856,0,0,1,.29553-.137c.57664-.19461,1.15328-.35319,1.71551-.57664a12.35459,12.35459,0,0,1,4.13018-.60547c.53339-.02162,1.12444.04325,1.61459.04325s.97308-.036,1.4416,0a5.13186,5.13186,0,0,0,1.18211-.00721,5.767,5.767,0,0,1,1.02353-.10812,2.66714,2.66714,0,0,0,.89379-.12974l2.8832-.92983a2.2642,2.2642,0,0,0,.28832-.14416,5.67245,5.67245,0,0,1,2.08311-.65593,5.45091,5.45091,0,0,0,.7208-.12974,11.331,11.331,0,0,1,2.55883-.30274,28.15392,28.15392,0,0,1,2.82554.29553.87209.87209,0,0,1,.24507.07208,1.52094,1.52094,0,0,0,.72079.10812,3.16468,3.16468,0,0,1,.64152,0c.42527.07208.84333.173,1.2686.25228a6.43582,6.43582,0,0,1,.95146.16578,12.92377,12.92377,0,0,0,2.011.46131,7.12177,7.12177,0,0,1,1.67225.49735,1.86692,1.86692,0,0,0,.49015.15858c.87937.12254,1.67225.591,2.566.6343a.38923.38923,0,0,1,.12253.04325l1.9822.80009c.5334.22345,1.06679.46852,1.60739.67755.7208.26669,1.4416.65593,2.16239.98749l.28833.14416,1.52809.84334a.72082.72082,0,0,1,.25949.173,1.20375,1.20375,0,0,0,.7208.46852,8.75108,8.75108,0,0,1,1.55693,1.00912c.15857.09371.24507.31.40364.41086a11.8355,11.8355,0,0,1,1.766,1.60738.32437.32437,0,0,1,.04325.43248,2.58059,2.58059,0,0,1-1.074,0,3.89013,3.89013,0,0,0-.6343-.10812c-.59827-.05767-1.20374-.07208-1.802-.15137a11.17243,11.17243,0,0,0-2.96249.14416,8.05912,8.05912,0,0,0-1.2686.26669c-.555.16579-1.10282.3604-1.65063.555q-1.18932.43248-2.36422.89379a2.16235,2.16235,0,0,0-.49015.31c-.346.2739-.692.58384-1.06678.83612a5.85281,5.85281,0,0,0-1.11,1.29023.61266.61266,0,0,0,.3604.46852,9.62251,9.62251,0,0,1,2.03986,1.10283.85043.85043,0,0,0,.22345.12974,4.18791,4.18791,0,0,1,1.20373.7208.77125.77125,0,0,0,.901.12253l.4541-.19461c.41806-.21624.82892-.46131,1.2614-.65593.90821-.40364,1.838-.75684,2.77507-1.074a6.93429,6.93429,0,0,1,1.29745-.37481c.57664-.07929,1.13886-.20183,1.70829-.31.82892-.15857,1.67226-.19461,2.50838-.2739a1.85266,1.85266,0,0,1,.519,0,1.91793,1.91793,0,0,1,.30274.14416,8.32537,8.32537,0,0,1-.9875,2.06869,16.339,16.339,0,0,0-.85054,1.593,11.007,11.007,0,0,1-.64152,1.36231,3.54561,3.54561,0,0,0-.24507.52618q-.22344.5334-.43969,1.074c-.23065.64152-.48293,1.283-.7208,1.93175-.07929.24507-.10091.49014-.15857.7208a3.453,3.453,0,0,1-.19462.61267,5.64379,5.64379,0,0,0-.48293,1.99662.88659.88659,0,0,0,.23065.81451,1.37671,1.37671,0,0,1,.40365.9947,3.83457,3.83457,0,0,1-.11533,1.14607,1.44159,1.44159,0,0,1-.61989.95145.85059.85059,0,0,0-.40364.49015c.346.56222.70638,1.13165,1.06678,1.69387a1.66513,1.66513,0,0,1,.30995.96587,8.93982,8.93982,0,0,1,0,1.09562,20.55716,20.55716,0,0,0-.05046,2.4363,2.69574,2.69574,0,0,0,.40365,1.4416,13.41394,13.41394,0,0,1,1.00912,2.30655c.173.46852.33156.95867.51176,1.4416.43248,1.26861.98749,2.53,1.4416,3.7842s1.06679,2.45071,1.49926,3.71932a2.40744,2.40744,0,0,1,.15137.937q-.02161.32436-.06487.64151a2.29208,2.29208,0,0,1-.7208,1.39835,3.60394,3.60394,0,0,1-2.1624.79288,2.37138,2.37138,0,0,0-.901.14416,1.69381,1.69381,0,0,0-.12975.87217,4.02943,4.02943,0,0,1,0,.77125,1.02355,1.02355,0,0,1-.41806.82892c-.30274.24507-.56223.53339-.84334.80009a.67755.67755,0,0,0-.209.64872,1.90308,1.90308,0,0,0,.15858.48293c.22344.48294.47573.95867.7208,1.4416.10812.209.20182.42527.28832.61268M269.56193,79.127c-.00722-.2739-.00722-.2739-.29553-.2739a.49736.49736,0,0,0-.10812-.5406c-.60548-.94425-1.23257-1.90291-1.81641-2.8832a9.70182,9.70182,0,0,1-.84333-2.07591c-.21624-.61268-.48293-1.20373-.7208-1.802-.41806-1.04515-.67034-2.14077-.9947-3.20755a6.74718,6.74718,0,0,1-.18741-1.0812c-.0937-.67034-.20182-1.39114-.25948-2.11194V63.0099a10.53165,10.53165,0,0,1,.10091-2.11915c.07929-.87938.32435-1.72992.44689-2.60209a.67748.67748,0,0,1,.05046-.18741c.3604-.77846.51176-1.63621.84333-2.4363.12975-.31715.1802-.66313.31716-.98028.28111-.64872.58384-1.29744.9082-1.93175.23066-.46131.52619-.88658.77126-1.34068a5.1896,5.1896,0,0,1,.63431-.88659,5.3775,5.3775,0,0,0,.901-1.18211.72074.72074,0,0,1,.209-.24507,4.47623,4.47623,0,0,0,.7208-.79288,8.52711,8.52711,0,0,1,2.76787-2.16239c.901-.45411,1.802-.91542,2.703-1.37673a.72085.72085,0,0,1,.23065-.11533,4.5411,4.5411,0,0,0,1.48485-.59826,20.57181,20.57181,0,0,1,2.63091-.88659,3.32306,3.32306,0,0,1,1.20374-.20182.966.966,0,0,0,.31715-.05045,17.92622,17.92622,0,0,1,4.02927-.54781c.58385-.02883,1.16049-.0937,1.73713-.14416a2.307,2.307,0,0,1,.51177,0,7.53919,7.53919,0,0,0,2.06148,0,.87952.87952,0,0,1,.25949,0,17.06142,17.06142,0,0,1,2.566.29553,1.925,1.925,0,0,0,.51177.04325,5.76638,5.76638,0,0,1,.83613.05045c1.1749.25228,2.41468.28832,3.604.61989.39644.11533.79288.23066,1.18932.32436a1.62911,1.62911,0,0,0,.37481,0,.59827.59827,0,0,0-.38923-.555,15.59109,15.59109,0,0,0-3.12106-1.03795c-.49736-.12974-1.00912-.21623-1.52089-.30994a1.71063,1.71063,0,0,0-.56943-.06487,2.16215,2.16215,0,0,1-.4469-.05767,11.72744,11.72744,0,0,0-2.24169-.2739.77857.77857,0,0,0-.31715,0,2.81838,2.81838,0,0,1-1.21815,0,5.65911,5.65911,0,0,0-1.02354-.05046c-.60547.04325-1.20373,0-1.8092,0a1.3049,1.3049,0,0,0-.38924,0,11.26567,11.26567,0,0,1-2.11915.23787,4.3254,4.3254,0,0,0-.8145.19461,6.48693,6.48693,0,0,1-1.70829.33878,2.16229,2.16229,0,0,0-.56944.10812c-.8145.2667-1.62179.56943-2.45071.8073a20.38324,20.38324,0,0,0-2.37864.8145,8.35456,8.35456,0,0,1-1.34069.46131,7.5682,7.5682,0,0,0-2.1624.9875,14.306,14.306,0,0,0-1.37673.99472c-.52618.41085-1.02353.85775-1.52809,1.29023-.30994.26669-.64151.51177-.92982.80009a9.543,9.543,0,0,0-2.1624,2.7102,2.955,2.955,0,0,1-.24507.37482,4.51965,4.51965,0,0,0-.64872,1.11723,1.16032,1.16032,0,0,1-.15857.28112,11.95781,11.95781,0,0,0-1.4416,3.43821,22.83361,22.83361,0,0,0-.62709,2.83274c-.12254.76405-.25229,1.5281-.33878,2.29935a1.34082,1.34082,0,0,0,0,.56943.41077.41077,0,0,1,0,.19462,16.708,16.708,0,0,0-.08649,2.50838.59067.59067,0,0,0,0,.19461,14.51734,14.51734,0,0,1,.33157,2.29935,10.17539,10.17539,0,0,1,.15858,1.47764,4.11585,4.11585,0,0,0,.28831,1.05237c.22345.64872.39644,1.31186.66314,1.94616a12.84725,12.84725,0,0,1,.5406,1.50646,2.43625,2.43625,0,0,0,.3676.7208,2.11917,2.11917,0,0,1,.49014.97308.46125.46125,0,0,0,.07929.173,16.43378,16.43378,0,0,0,1.03073,1.64342,8.87383,8.87383,0,0,0,1.12445,1.247,8.40494,8.40494,0,0,1,1.03074,1.11.346.346,0,0,1,.30993.24507,1.22616,1.22616,0,0,0,.15858.1802.18029.18029,0,0,0,.09371,0,.18746.18746,0,0,0-.04325-.0937,1.723,1.723,0,0,0-.22344-.04325m15.55484-10.00471a1.00884,1.00884,0,0,0-.14416-.11533.16567.16567,0,0,0-.0865,0,.20191.20191,0,0,0,.06487.08649.72025.72025,0,0,0,.173,0l-.0008.01538a.2667.2667,0,0,0,.26029.273.31715.31715,0,0,0-.2739-.27391M258.0003,85.85923a.43971.43971,0,0,0,.21625-.0865c.12973-.25228.23065-.519.346-.78567a1.38679,1.38679,0,0,0,0-.173.16585.16585,0,0,0-.05047-.05766.18022.18022,0,0,0-.04324.0865.80729.80729,0,0,0,.10091.14415.32436.32436,0,0,0-.346.21625l-.21624.65593a2.6737,2.6737,0,0,0-.14416.7208.6343.6343,0,0,0,.14416-.7208m36.31386-46.73663a.42529.42529,0,0,0-.43248.22345,4.47608,4.47608,0,0,1-.865.94425.25229.25229,0,0,0-.07207.41086,8.1673,8.1673,0,0,0,1.3551-1.58576.519.519,0,0,0,.137-.11533.31732.31732,0,0,0,0-.14416.33162.33162,0,0,0-.14416.05045.858.858,0,0,0,0,.22345m3.35892-3.1571a3.72666,3.72666,0,0,0,1.00912-.555,8.55626,8.55626,0,0,1,2.1624-1.21094,3.60343,3.60343,0,0,0,.6271-.33157,1.99656,1.99656,0,0,1,.92983-.41085.81468.81468,0,0,0,.28111-.1802.72081.72081,0,0,0-.901-.23066,8.92444,8.92444,0,0,0-1.21094.59827,11.06342,11.06342,0,0,0-1.26861.865c-.41806.33877-.87937.61989-1.32627.91541a.72081.72081,0,0,0-.3604.50456,1.34075,1.34075,0,0,0-.7208.56943.15137.15137,0,0,0,.28111.05767c.1802-.1802.33877-.37482.50456-.56943m-20.57882,66.23423-.20182-.04325a2.84,2.84,0,0,0-.7208,1.12445,6.18445,6.18445,0,0,0-.36761,2.08311,4.32369,4.32369,0,0,1-.0937.63431c-.04325.25948-.0937.49013-.14416.72079a3.676,3.676,0,0,1-.346,1.29745,1.02334,1.02334,0,0,0-.04325.42526.27389.27389,0,0,0,.10091,0,4.91589,4.91589,0,0,0,1.074-2.64533c.05046-.68475.16579-1.36231.23787-2.04706a2.88321,2.88321,0,0,1,.33156-1.10283,3.5597,3.5597,0,0,0,.16579-.41086l.19461-.58384c-.10091-.09371-.14415.01442-.19461.10091a.49735.49735,0,0,0,0,.47573m16.39819-39.00966a.33885.33885,0,0,0,.15857-.036,5.09831,5.09831,0,0,0,.27391-.51177c.46851-.97308,1.15327-1.80921,1.665-2.76066a.61262.61262,0,0,1,.07208-.10812,25.62459,25.62459,0,0,0,1.90291-2.74625,1.0527,1.0527,0,0,1,.15857-.20182,8.89461,8.89461,0,0,0,1.12445-1.33348,4.54133,4.54133,0,0,1,.36761-.44689,54.17994,54.17994,0,0,1,4.4185-4.159c.764-.6271,1.54251-1.23978,2.31376-1.85966a.663.663,0,0,1,.15137-.11533,6.639,6.639,0,0,0,1.23977-.7208,7.65838,7.65838,0,0,1,.67035-.382,14.72455,14.72455,0,0,1,1.50646-.7208c.95146-.40365,1.8885-.84334,2.83275-1.26861l.82171-.346a.72063.72063,0,0,0-.209-.07208,4.003,4.003,0,0,1-.57664.0937,4.83671,4.83671,0,0,0-1.4416.382c-.15857.06487-.23786.05766-.49014.15136s-.49014.20183-.7208.31c-.41085.19461-.80729.42527-1.22536.59105a21.62454,21.62454,0,0,0-2.27051,1.23257c-.45411.24507-.79288.54781-1.283.865s-.937.68476-1.39835,1.038a15.13666,15.13666,0,0,0-2.28493,2.1624,4.98043,4.98043,0,0,1-.8073.9082,8.64976,8.64976,0,0,0-1.04515,1.03795c-.555.5406-1.02354,1.15329-1.5353,1.73713a1.86678,1.86678,0,0,1-.27391.23787,3.30849,3.30849,0,0,0-.78566,1.00191,4.49033,4.49033,0,0,1-.38924.59105,6.89877,6.89877,0,0,0-.7208,1.13887c-.23065.39643-.50455.75683-.7208,1.15328-.29553.52618-.555,1.06678-.82892,1.60017a1.90945,1.90945,0,0,1-.21624.382,1.94623,1.94623,0,0,0-.48293,1.10283,3.75521,3.75521,0,0,0-.80009,1.68667.346.346,0,0,0,.32436-.30274c.173-.38923.31715-.79288.46852-1.19653a.42541.42541,0,0,0,0-.1874m-20.13191,42.40465h0a27.72264,27.72264,0,0,1,.52618-4.23831,1.25409,1.25409,0,0,0-.32435.18741,3.13537,3.13537,0,0,0-.7208,2.09031,13.18359,13.18359,0,0,1-.7208,4.887,2.10464,2.10464,0,0,1-.39644.66313,1.247,1.247,0,0,0-.30994.88658,1.283,1.283,0,0,1-.1802.92983.37482.37482,0,0,1-.25229-.40365,6.48765,6.48765,0,0,1,.07929-1.54971,2.16229,2.16229,0,0,0,0-.50456,1.93173,1.93173,0,0,0-.40364,1.23978v1.03073a.54062.54062,0,0,1-.10091.29553.3099.3099,0,0,1-.21625.09371.20183.20183,0,0,1-.12974-.12253,3.04314,3.04314,0,0,1-.10811-.3532l-.50456.26669a2.883,2.883,0,0,1-.12253-1.05237c.04324-.75684.12253-1.5353.209-2.2561a.92106.92106,0,0,0,0-.1802,2.20569,2.20569,0,0,0-.77846,1.48484v.64872a.3804.3804,0,1,1-.49015-.02883c.02162-.62709.10091-1.247.173-1.86687a1.09554,1.09554,0,0,1,.14415-.35319,9.8455,9.8455,0,0,0,.83613-1.75154.82835.82835,0,0,0,.0865-.24507c-.05767-.81451.23065-1.6218.10091-2.44351a.20926.20926,0,0,0-.07929-.04324,2.948,2.948,0,0,0-.65593.9947,7.63364,7.63364,0,0,0-.519,2.32818,4.79383,4.79383,0,0,0,0,1.34789.25222.25222,0,0,1,0,.18741,1.94622,1.94622,0,0,0-.23786.7208,4.166,4.166,0,0,0-.28111,1.77317,2.41471,2.41471,0,0,1-.15858.7208.18744.18744,0,0,1-.14416.10091.25235.25235,0,0,1-.14416-.10091.19463.19463,0,0,1-.036-.12254,4.49791,4.49791,0,0,1,.14416-1.85246,11.74819,11.74819,0,0,0,.44689-2.21286.555.555,0,0,0-.05766-.21624.2883.2883,0,0,0-.29553.24507c-.209.49735-.41807.96587-.61269,1.4416-.30273.73522-.61988,1.49926-.88658,2.22006a20.62356,20.62356,0,0,0-.98749,2.93366,1.22527,1.22527,0,0,1-.08649.24507,9.0741,9.0741,0,0,0-.49735,1.60017c-.11533.519-.28832,1.03074-.43969,1.54251-.21624.74243-.31716,1.51369-.46131,2.27773a1.58569,1.58569,0,0,0,0,.81451.39643.39643,0,0,0,.49014,0l2.16239-1.06678c.346-.173.68476-.3604,1.03074-.5406a.86507.86507,0,0,0,.23066-.12254,3.27248,3.27248,0,0,1,1.2614-.6343l1.2614-.50456a4.526,4.526,0,0,1,.49735-.13695,5.7666,5.7666,0,0,0,1.23257-.33158,5.20523,5.20523,0,0,1,1.11724-.28831l.7208-.173c.90821-.22345,1.838-.25228,2.74625-.43248.66313.11533,1.32626-.15858,1.99661,0a6.57388,6.57388,0,0,1,1.48484-.04325h2.1624a11.0141,11.0141,0,0,1,1.85245.18741h.32436a7.55393,7.55393,0,0,1,.85053.173,3.813,3.813,0,0,1,1.4416.32436.54773.54773,0,0,0,.25228,0c1.13886.04324,2.184.48293,3.30126.59826a4.88531,4.88531,0,0,1,.7208.173c.98029.25227,1.96779.48293,2.94086.764.69918.20183,1.3479.51178,2.0687.7208.865.25949,1.70109.59827,2.57325.83613a16.93963,16.93963,0,0,1,2.0687.7208c.60547.23066,1.21094.46131,1.802.7208.41806.1802.85775.43969,1.21815.59827s.728.27389,1.0812.42526c.591.25949,1.18211.52619,1.76595.80009.33157.15858.6343.3604.96587.519a25.20244,25.20244,0,0,1,2.42189,1.4416,4.98108,4.98108,0,0,0,.67034.382,3.33041,3.33041,0,0,1,.7208.41086,7.595,7.595,0,0,0,.7208.346c.41085.21624.8145.46852,1.21094.7208a4.195,4.195,0,0,1,1.02354.764,6.84756,6.84756,0,0,1,.78566.64871.937.937,0,0,0,.7208.41086h.05767a.245.245,0,0,0,.04324-.11533,11.37422,11.37422,0,0,0-1.08119-2.47955c-.4469-.764-.87217-1.53531-1.32627-2.29935a7.3946,7.3946,0,0,0-.59106-.85054,19.54035,19.54035,0,0,0-2.26331-2.48675,3.60286,3.60286,0,0,1-.346-.382c-.28832-.346-.65593-.63429-.94425-.96587a13.46434,13.46434,0,0,1-1.4416-1.44159,1.52813,1.52813,0,0,0-.33156-.30274c-.51177-.43247-1.03075-.82171-1.5353-1.29022s-1.05237-.89379-1.58576-1.32627c-.1802-.14416-.32436-.33878-.49735-.50456a12.01337,12.01337,0,0,0-1.20374-1.074c-.29552-.209-.49735-.5406-.77125-.77847a5.29053,5.29053,0,0,1-1.20373-1.593,7.16454,7.16454,0,0,1-.7208-1.92453,2.33549,2.33549,0,0,1,0-.7208,13.08217,13.08217,0,0,0,0-2.58046,13.31974,13.31974,0,0,1,.036-1.54251c.02162-.45411.07208-.90821.07208-1.36231a1.75153,1.75153,0,0,1,.036-.4469,15.56122,15.56122,0,0,1,.60547-1.96777,2.48668,2.48668,0,0,1,.67034-.92983,2.88311,2.88311,0,0,0,.33878-.30273,2.44349,2.44349,0,0,1,1.61459-.7208c1.13165-.12975,2.27052-.25229,3.40217-.39645.8073-.10812,1.6218-.23786,2.4291-.3676.22344-.04325.46852-.12254.72079-.1802l.43969-.09371a5.18237,5.18237,0,0,0,2.1624-.88658,2.10475,2.10475,0,0,0,.98029-1.802,10.97054,10.97054,0,0,0-.19462-2.37864,11.404,11.404,0,0,1-.25227-1.593,5.48577,5.48577,0,0,1,.15857-1.0812q.00755-.15127,0-.30274l-1.25419-.41085a4.20949,4.20949,0,0,1-1.94615-1.21816c-.0865-.0937-.20183-.16578-.28832-.25948a1.51336,1.51336,0,0,1-.29553-.33878c-.19462-.382-.37482-.77846-.5406-1.1749a.31717.31717,0,0,1,.173-.48294,4.65594,4.65594,0,0,1,.89379-.36039c.692-.173,1.36952-.31,2.09032-.4469a3.76275,3.76275,0,0,1,.64151-.05767h2.16239a.346.346,0,0,0,.39645-.33877,4.99116,4.99116,0,0,0,0-.519,6.70322,6.70322,0,0,1,.07928-.901,6.752,6.752,0,0,0,0-1.22536.25947.25947,0,0,0-.26669-.23786,7.54854,7.54854,0,0,0-.901,0,.59828.59828,0,0,0-.33157.1802,2.53,2.53,0,0,1-1.03795.51177.72087.72087,0,0,1-.37482,0,2.0398,2.0398,0,0,1-.87937-.38924,1.11731,1.11731,0,0,0-.2667-.18741,2.80386,2.80386,0,0,1-1.21094-1.21815,1.074,1.074,0,0,1-.1802-.91541,1.94635,1.94635,0,0,0,.05766-.382,1.90292,1.90292,0,0,1,.42527-.9947,3.604,3.604,0,0,1,1.75154-1.21095,3.84911,3.84911,0,0,1,2.53722.15137c.519.20182,1.00912.48293,1.51367.7208.137.05766.27391.10091.46852.173a4.25286,4.25286,0,0,0-.05766-1.05237c-.12254-.56943-.21624-1.13886-.32436-1.70829a1.82944,1.82944,0,0,0-.04325-.25228c-.22344-.764-.4541-1.48485-.72079-2.20565-.41806-1.13165-.8073-2.27051-1.30465-3.36613a11.05723,11.05723,0,0,0-1.13165-2.01824,13.6935,13.6935,0,0,1-1.01633-1.72992.92266.92266,0,0,0-1.4416-.32435c.28111.36761.57664.7208.85775,1.13886a.60545.60545,0,0,1-.66313-.12974,8.37749,8.37749,0,0,1-.67756-.7208.72079.72079,0,0,0-.85054-.24507l-2.55884.89379a1.21833,1.21833,0,0,0-.33878.18741c-.51176.39644-1.00912.80729-1.51367,1.21094a1.23416,1.23416,0,0,0-.14416.12974,1.00911,1.00911,0,0,1-1.18932.23066c-.25228-.11533-.51177-.22345-.764-.346a.49008.49008,0,0,1-.16578-.19461.22344.22344,0,0,1,.15858-.346.64169.64169,0,0,1,.25948,0,.83611.83611,0,0,0,.8073-.2739,19.58575,19.58575,0,0,1,2.22727-1.65784,7.143,7.143,0,0,1,2.37143-.87937c.764-.12974,1.54251-.18741,2.31376-.25228a.87219.87219,0,0,1,.85776.33878c.13695.18741.30273.3604.44689.54781.31716.40364.692.87937.92262,1.23256s.40365.74964.60547,1.12445c.137.23786.25949.48293.41086.7208.28832.4541.591.901.87937,1.3551a2.349,2.349,0,0,1,.12254.3604c.10812.2739.23065.54781.35319.82171a.42538.42538,0,0,0,.15858,0c-.07929-.23787-.15137-.4541-.23066-.67034-.209-.56223-.39644-1.13887-.61989-1.69388-.15857-.39644-.346-.78567-.53339-1.1749a2.68864,2.68864,0,0,1-.31715-1.36952,1.44126,1.44126,0,0,0,0-.38923,9.26291,9.26291,0,0,1-.04325-2.1624,2.82546,2.82546,0,0,0-.64151-2.03986,1.103,1.103,0,0,1-.25949-.36761,1.13163,1.13163,0,0,0-.88658-.67035.57663.57663,0,0,0-.43248.04325,2.53,2.53,0,0,1-1.87408.25949,5.529,5.529,0,0,0-.61267.54781,1.83805,1.83805,0,0,1-1.87408.50455,9.06738,9.06738,0,0,1-.80009.43969,4.80018,4.80018,0,0,1-.85054.28832,1.86694,1.86694,0,0,0-.90821.46852,7.95268,7.95268,0,0,1-.92982.82164c-.07208.07929-.137.16578-.20182.25228a1.44162,1.44162,0,0,1-1.06679.64151,1.90193,1.90193,0,0,0-.30994.06487,3.66168,3.66168,0,0,1-1.20374,1.31907.77113.77113,0,0,0-.22344.21624,3.38056,3.38056,0,0,1-1.37673,1.23256.78583.78583,0,0,0-.24507.20183,4.72152,4.72152,0,0,1-.7208.7208,2.05428,2.05428,0,0,0-.54781.72079,2.51559,2.51559,0,0,1-1.00191,1.05958,1.44157,1.44157,0,0,0-.7208.8073,1.665,1.665,0,0,1-1.75875.92983c-.21624-.04325-.4469-.10092-.7208-.16579a1.838,1.838,0,0,0,0,.4541,4.78615,4.78615,0,0,1-.67755,3.64725c-.036.05766-.0865.11533-.0865.15857a14.16285,14.16285,0,0,0,.4469,2.34981,1.35522,1.35522,0,0,1,0,.25949c.04324.64872.12974,1.29023.12974,1.939a1.6651,1.6651,0,0,1,.05767.7208,2.23437,2.23437,0,0,0,0,.7208,5.9604,5.9604,0,0,0,0,.764c.05766.59826-.04325,1.20374,0,1.79479a15.65637,15.65637,0,0,1,.05766,2.12636c-.05046.77125-.05766,1.54251-.11533,2.31376-.07929,1.05237-.14416,2.10473-.14416,3.16431a4.32078,4.32078,0,0,1-.06487.4469,4.253,4.253,0,0,0-.07208,1.0812,3.65476,3.65476,0,0,1-.07207.7208c-.06488.87937-.12254,1.766-.18741,2.64533a3.194,3.194,0,0,1-.0865.4469,2.92619,2.92619,0,0,0-.0865.37481c-.05766.77126-.29552,1.51368-.42527,2.27773-.06487.40365-.12974.80729-.173,1.21094a.79289.79289,0,0,1-.7208.7208,2.55156,2.55156,0,0,1-.51176.09371,1.03074,1.03074,0,0,0-.92984.77846,2.39319,2.39319,0,0,0-.18741,1.074.72064.72064,0,0,1,0,.25948,6.603,6.603,0,0,0-.12974,1.86687.72078.72078,0,0,1-.05045.31715,4.38957,4.38957,0,0,1-.77126,1.47764,4.38981,4.38981,0,0,0-.8073,1.4416,2.52292,2.52292,0,0,0-.13695,1.13166,1.13171,1.13171,0,0,0,.21624.45411.66315.66315,0,0,1,.07929.61989.25229.25229,0,0,1-.41807.10091.89382.89382,0,0,1-.28111-.63431c0-.30994.01442-.60547.04325-1.03074s.07208-.85774.11533-1.36951a1.09583,1.09583,0,0,0-.24507.1802,2.16238,2.16238,0,0,0-.4541,1.57134,1.44149,1.44149,0,0,0,.16579.5478.7208.7208,0,0,1-.23787.85775.209.209,0,0,1-.28832-.05766.72078.72078,0,0,1-.137-.555c.06487-.7208.10811-1.4416.22344-2.1624a5.7161,5.7161,0,0,1,.37482-1.0884,4.57167,4.57167,0,0,1,.209-.42527,1.21094,1.21094,0,0,1-.382-1.39114,7.14344,7.14344,0,0,0,.16578-.88658,2.06867,2.06867,0,0,1,.519-1.3551.52618.52618,0,0,0,.12253-.51177,1.68666,1.68666,0,0,0-.85775,1.15328c-.05046.33877-.10812.68476-.15137,1.02353a4.23776,4.23776,0,0,0,0,.51177v1.03074q-.0937.937-.25228,1.85966a3.38063,3.38063,0,0,1-.26669.79289,6.70686,6.70686,0,0,1-.43969.78567l-.00044.00109a.30994.30994,0,0,1-.40321.1719,1.766,1.766,0,0,1,.23787-1.32627,1.67945,1.67945,0,0,0,.15136-.28111,2.27049,2.27049,0,0,0,.3604-1.47764,5.23271,5.23271,0,0,0,0-1.4416,6.87662,6.87662,0,0,1,.25228-2.23448,2.6661,2.6661,0,0,0,.07208-.3604.15858.15858,0,0,0-.28111,0,1.02384,1.02384,0,0,0-.18741.25949,3.66163,3.66163,0,0,0-.38923,1.49206v.84333a12.6289,12.6289,0,0,1-.30994,2.94807,5.04547,5.04547,0,0,1-.46132,1.33348.8001.8001,0,0,1-.5478.48294.37481.37481,0,0,1-.036-.49014c.11533-.28111.25949-.5478.36761-.82892a10.37085,10.37085,0,0,0,.43248-1.29022,5.68883,5.68883,0,0,0,.05767-.96587c.036-.75684.12253-1.54251.12253-2.26331v-.95866a.28832.28832,0,0,0-.42527.209,5.428,5.428,0,0,0-.25228.99471,6.20034,6.20034,0,0,0-.07208,1.15328c-.05766.7208-.08649,1.4416-.18741,2.1624a3.17133,3.17133,0,0,1-.48293,1.32627l-.41806.65593a.23869.23869,0,0,1,0,.05766,3.25093,3.25093,0,0,1-.96587.65593,1.31184,1.31184,0,0,1,.23065-.9947,2.091,2.091,0,0,1,.3604-.37482,3.51025,3.51025,0,0,0,1.06679-2.36422,9.57953,9.57953,0,0,0,.036-1.03074c.01442-.66313.12254-1.32627.18741-1.9894a1.96391,1.96391,0,0,0,.04325-.50456.53342.53342,0,0,0-.49736.31716,3.05607,3.05607,0,0,0-.40364,1.21093c-.02884.30274-.10812.59827-.10812.901a1.37622,1.37622,0,0,0,0,.38923,1.23261,1.23261,0,0,1-.07208.7208.72072.72072,0,0,0-.05767.25228,4.49777,4.49777,0,0,1-.58384,1.88849.39644.39644,0,0,0-.05767.11533c-.04325.61269-.59826.90822-.937,1.33349a.38221.38221,0,0,1-.15858.06487l-.01861-.00912a.19463.19463,0,0,1-.07509-.26479c.07208-.24507.15858-.46131.25228-.7208a2.88325,2.88325,0,0,0-.98029,1.31186c-.209.04324-.12253-.19462-.25949-.25949a1.27581,1.27581,0,0,0-.23065.88658.44692.44692,0,0,1-.209.37482c-.32436-.36762.15136-.79288-.09371-1.15328a.209.209,0,0,0-.26669.11533,1.00191,1.00191,0,0,1-.51177.49013,3.02728,3.02728,0,0,1,.173-.88658,5.14652,5.14652,0,0,0,.4541-1.93173c-.0072-.82171.2667-1.60738.2667-2.42909a5.43422,5.43422,0,0,1,.10812-.76405c.10091.04325.10091-.02162.10091-.08649a.12256.12256,0,0,0,0-.05046l-.05766.14416a1.44158,1.44158,0,0,0-.68476,1.4416v.38922a4.85821,4.85821,0,0,1-.14416,2.04707,4.64921,4.64921,0,0,1-1.26861,2.21286.48289.48289,0,0,1-.1802.05046c-.24507-.25227,0-.5478-.11533-.84333a.5767.5767,0,0,0-.20182.0937c-.19461.24507-.37481.49014-.56222.7208a1.60674,1.60674,0,0,1-.23066.1802,1.05251,1.05251,0,0,1-.10812-.24507,1.23257,1.23257,0,0,1,.20182-.86495c.15858-.25229.29553-.49736.46132-.7208a5.51428,5.51428,0,0,0,.79287-1.6218,1.54262,1.54262,0,0,0,.06487-.31715c.05046-.53339.0865-1.074.137-1.60738a8.12973,8.12973,0,0,1,.14415-1.0812,3.006,3.006,0,0,1,.346-.8938,9.03762,9.03762,0,0,0,.57664-1.14607,1.87387,1.87387,0,0,0,.14416-.61988.27391.27391,0,0,0-.28111-.31716,15.62049,15.62049,0,0,0-.87217,1.91012,2.68221,2.68221,0,0,0-.06487.382c-.05045.49735-.07929.97308-.14416,1.4416-.04325.27389-.15857.53338-.21624.80729a16.49974,16.49974,0,0,1-.56222,1.975,4.79225,4.79225,0,0,1-.23787.59827,9.03115,9.03115,0,0,1-.66313,1.1749,2.32108,2.32108,0,0,0-.3604.88658,7.43641,7.43641,0,0,1-.18741.7208.7206.7206,0,0,1-.173.16578,8.70025,8.70025,0,0,1,.28111-2.42909.15858.15858,0,0,0-.26669.09371,2.83257,2.83257,0,0,0-.32436,1.30465.94427.94427,0,0,1-.22345.65593.137.137,0,0,1-.10812.05046.2379.2379,0,0,1-.14416-.10812,1.28293,1.28293,0,0,1,0-.51177,11.0928,11.0928,0,0,0,.29553-1.96778l-.01118-.00174a.15858.15858,0,0,0-.17623.13869c-.11532.2739-.25227.54781-.35319.82892a1.08119,1.08119,0,0,0-.08649.7208.91539.91539,0,0,1,0,.44689.65585.65585,0,0,1-.15858.26669.15137.15137,0,0,1-.25949-.06487,2.79653,2.79653,0,0,1,0-.57664c.05767-.57663.14416-1.15327.209-1.72991a1.61462,1.61462,0,0,1,.21625-.59827c.26669-.49015.53339-.98028.764-1.49206a2.56588,2.56588,0,0,0,.21624-.937c.02884-.53339.12975-1.06678.1802-1.60017a6.69629,6.69629,0,0,1,.42527-2.1624.26669.26669,0,0,0,0-.12253.6343.6343,0,0,0-.519.42526c-.16579.346-.28833.728-.46853,1.06678a4.82939,4.82939,0,0,0-.32435,1.88129,8.83705,8.83705,0,0,1-.29553,2.1624,8.27523,8.27523,0,0,1-.52619,1.57855,3.604,3.604,0,0,0-.37481,1.802,2.98483,2.98483,0,0,1-.08649.56942.18742.18742,0,0,1-.15138.10092.18021.18021,0,0,1-.13695-.10092,1.11008,1.11008,0,0,1-.05767-.382,12.48436,12.48436,0,0,1,.32436-2.29935,5.39873,5.39873,0,0,1,.50456-1.25419,2.523,2.523,0,0,0,.24507-.7208,27.91791,27.91791,0,0,0,.382-3.27243,4.93748,4.93748,0,0,1,.33878-1.23977.64154.64154,0,0,0,.05766-.64872.57667.57667,0,0,0-.20182.10091,2.27782,2.27782,0,0,0-.36761.519,4.24552,4.24552,0,0,0-.35319,1.69388,5.91755,5.91755,0,0,1-.209,1.4416l-.30995.05767M285.16,93.18255c.04325-.50455.11533-.937.11533-1.49205s.04324-1.11.04324-1.67225c-.00721-.68476.0865-1.34069.14416-2.06149a.62692.62692,0,0,0,0-.18741,3.05632,3.05632,0,0,1,0-1.4416.66324.66324,0,0,0,0-.12974,10.4957,10.4957,0,0,1,.036-1.47764v-1.4416a6.86285,6.86285,0,0,1,.09371-.764,19.85135,19.85135,0,0,0,.12974-2.88319c.036-.49735,0-.98749.036-1.48485.05046-.7208.15858-1.4416.209-2.1624a7.66837,7.66837,0,0,0-.036-1.22535.91538.91538,0,0,0-.20182-.38923,4.86538,4.86538,0,0,1-.92983-3.06339,8.87338,8.87338,0,0,1,.15857-1.05237A13.03911,13.03911,0,0,0,283.668,68.6826a2.0325,2.0325,0,0,1-.30273-.33157,13.09616,13.09616,0,0,1-1.05237-1.99661,3.40935,3.40935,0,0,1-.26669-2.27052c.07207-1.21815.91541-1.74433,1.88128-2.16239a4.0508,4.0508,0,0,1,2.40026.24507,7.51745,7.51745,0,0,1,.94425.555.35319.35319,0,0,1,.12974.4541.668.668,0,0,0-.08649.24507,2.30655,2.30655,0,0,0-.21625,1.4416,5.45792,5.45792,0,0,0,.173.87216,1.88854,1.88854,0,0,0,1.01633,1.10283,7.504,7.504,0,0,0,2.11916.66313l.10812-.41085a13.54418,13.54418,0,0,0,.41085-1.629,1.485,1.485,0,0,1,.16579-.41806,3.35866,3.35866,0,0,0,.16578-.35319,19.18272,19.18272,0,0,1,.89379-2.1624,17.56562,17.56562,0,0,1,1.31907-2.50838c.60547-.92263,1.16048-1.87408,1.74433-2.80391a9.81764,9.81764,0,0,1,.8145-1.247,29.66057,29.66057,0,0,1,2.27053-2.69578c.47572-.45411.92262-1.038,1.31185-1.4416s.92262-.87938,1.21094-1.1677.555-.59105.82892-.901a1.21074,1.21074,0,0,0,.12975-.25227,1.7155,1.7155,0,0,0-.29553-.33157c-.48294-.30274-.97308-.57664-1.4416-.87938a5.04559,5.04559,0,0,0-1.593-.68476,3.73358,3.73358,0,0,1-.41806-.173,3.39471,3.39471,0,0,0-1.06679-.26669,3.51036,3.51036,0,0,1-1.06678-.24508,5.18276,5.18276,0,0,0-1.63621-.3604,12.56327,12.56327,0,0,1-1.72992-.23065A18.4172,18.4172,0,0,0,289.89567,46.1a18.74178,18.74178,0,0,0-3.21477.25949c-.44689.06487-.89378.10812-1.34068.18741a8.93956,8.93956,0,0,0-.94425.23065c-.519.14416-1.03795.30274-1.54972.46852a4.22541,4.22541,0,0,0-.44688.20908c-.28111.12254-.45411.19462-.82892.36761a11.885,11.885,0,0,0-1.09562.5406c-.87216.51177-1.75154,1.02353-2.59487,1.57855a14.52177,14.52177,0,0,0-1.4416,1.16049c-.6343.555-1.21094,1.16048-1.802,1.75874a19.72973,19.72973,0,0,0-1.92453,2.42189c-.41086.57664-.82892,1.15328-1.23978,1.73713-.14415.209-.25948.43969-.38922.66313l-.25229.4469a1.99667,1.99667,0,0,0-.30994.555,10.41474,10.41474,0,0,1-.555,1.57135,2.53809,2.53809,0,0,1-.15858.42526,5.925,5.925,0,0,0-.56222,1.7083,13.8178,13.8178,0,0,0-.24507,2.37143v1.5353a1.73693,1.73693,0,0,0,.10091.56943,11.29513,11.29513,0,0,1,.58384,2.1624,7.678,7.678,0,0,0,.43969,1.283,13.26277,13.26277,0,0,0,.85776,2.01824,7.02012,7.02012,0,0,0,1.23257,1.72992,1.2467,1.2467,0,0,1,.209.24507,3.604,3.604,0,0,0,1.29744,1.22536,1.15333,1.15333,0,0,1,.30995.23786,2.3208,2.3208,0,0,0,.80009.53339,7.57554,7.57554,0,0,0,2.494.84334,13.59862,13.59862,0,0,0,1.802.07928h.38923a6.3789,6.3789,0,0,0,2.34981-.30994,9.62276,9.62276,0,0,1,1.39835-.23786.18741.18741,0,0,1,.10812.35319c-.64151.39643-1.18932.91541-1.85966,1.27581-.92983.49735-1.78038,1.13165-2.65975,1.70829a11.83506,11.83506,0,0,0-1.4416,1.20374c-.36761.33157-.8145.74242-1.08841,1.01633s-.52619.56942-.77846.86495q-.21088.24584-.39645.51177a1.33351,1.33351,0,0,0-.19461,1.1677,11.89071,11.89071,0,0,1,.2739,1.32626,6.81144,6.81144,0,0,1,.05046,1.03075,10.81183,10.81183,0,0,1-.2739,2.76066,2.16414,2.16414,0,0,1-.10812.30273,1.0669,1.0669,0,0,0-.09371.23787,8.23833,8.23833,0,0,1-.28111,1.31185l-.004.01547a.58383.58383,0,0,0,.42925.70533c.29553.12975.60547.22345.91541.32436a12.75907,12.75907,0,0,0,1.29023.40365,12.33336,12.33336,0,0,0,1.283.15136h.38923a1.25448,1.25448,0,0,1,.25949,0,25.35316,25.35316,0,0,0,3.13547.29553.46845.46845,0,0,0,.25228,0,2.0904,2.0904,0,0,1,1.074-.10091,4.15176,4.15176,0,0,0,1.4416-.3604M257.4525,83.35085a2.68846,2.68846,0,0,0,.39644-.7208c.29553-.78567.60547-1.56413.96587-2.321a14.70507,14.70507,0,0,1,1.18211-1.99661,9.219,9.219,0,0,1,1.6002-1.766,7.32288,7.32288,0,0,1,1.70829-1.14607,2.811,2.811,0,0,1,1.13166-.25228,1.12438,1.12438,0,0,0,.7208-.15137.8145.8145,0,0,0-.22345-.65593,3.68315,3.68315,0,0,1-.519-.95866c-.29554-.692-.64872-1.34069-.92263-2.06149a25.59,25.59,0,0,1-.95866-2.53721c-.25949-.92983-.43247-1.96778-.59827-2.88319s-.19461-1.838-.29553-2.76067a13.77041,13.77041,0,0,1,0-1.44159,16.29022,16.29022,0,0,1,.30994-2.62371c.10091-.64151.25228-1.26861.346-1.91012a7.20911,7.20911,0,0,1,.22345-.937c.15136-.51177.41806-.9875.52618-1.52089a3.27965,3.27965,0,0,1,.46131-1.05958,3.972,3.972,0,0,0,.42527-.937,6.86906,6.86906,0,0,1,.95866-1.75155c.5406-.82892,1.06678-1.665,1.6218-2.48675a10.37167,10.37167,0,0,1,.82892-1.074c.4469-.48293.91541-.95145,1.37673-1.44159l-.49014-1.03075-.49014-1.05236a.28793.28793,0,0,1,0-.05767c-.14416-.77846-.58385-1.47043-.7208-2.26331a2.718,2.718,0,0,1,0-.382v-.97308a1.25425,1.25425,0,0,0-.08649-.28832,1.03793,1.03793,0,0,0-.87938.19462,2.56648,2.56648,0,0,1-.7208.32436,4.714,4.714,0,0,0-1.65784.95866,2.41491,2.41491,0,0,1-.5478.33157,1.593,1.593,0,0,0-.78567.53339.35317.35317,0,0,1-.14416.12974,4.09423,4.09423,0,0,0-1.1749.99471c-.1802.1802-.41085.30994-.58385.49735s-.28833.41806-.45411.61268c-.27389.32436-.56942.64151-.85053.96587-.05047.06487-.10092.13695-.15138.20182-.54781.74242-1.00191,1.57134-1.55693,2.29214-.26669.3604-.44689.77846-.68475,1.1677a8.22377,8.22377,0,0,0-.7208,1.49926,10.69873,10.69873,0,0,1-.45411.9947c-.31715.65593-.5406,1.3479-.80009,2.02545a6.00923,6.00923,0,0,1-.37482,1.03074,1.33367,1.33367,0,0,0-.11533.49736,3.842,3.842,0,0,1-.26669,1.25419,1.11009,1.11009,0,0,0-.05766.31715c-.15138.937-.23066,1.88129-.29553,2.82553a6.58128,6.58128,0,0,1-.14416,1.08841,4.69226,4.69226,0,0,0-.09371,1.09561v.97308a2.386,2.386,0,0,0,.07929.89379.38212.38212,0,0,1,0,.25228,2.72445,2.72445,0,0,0,0,1.14607c.01442.38923.02162.77846.05766,1.16769q.07209.77125.19462,1.5353c.11532.7208.24507,1.4416.36761,2.1624a.7876.7876,0,0,1,.04324.31715,3.359,3.359,0,0,0,.14416.82171,10.67535,10.67535,0,0,1,.41807,1.68667c.0937.33878.1874.70639.28111,1.05958a1.39383,1.39383,0,0,1,.07929.37481,7.71269,7.71269,0,0,0,.26669,1.12445,22.05211,22.05211,0,0,1,.7208,2.28493c.11532.46131.28111.90821.3676,1.36952.19462,1.18211.58385,2.32818.7208,3.52471a6.13532,6.13532,0,0,0,.15858.75684.60537.60537,0,0,0,.137.16578m22.907-5.37716a1.74388,1.74388,0,0,0-.43968-.05767,8.70729,8.70729,0,0,1-2.2561,0,1.26881,1.26881,0,0,0-.38924,0,3.54635,3.54635,0,0,1-1.52809-.13695,11.03544,11.03544,0,0,1-3.467-1.54972.59812.59812,0,0,1-.10812-.07208c-.46852-.45411-.937-.937-1.4416-1.36952a5.68724,5.68724,0,0,1-1.13166-1.4416,4.54716,4.54716,0,0,0-.30273-.42527,9.83121,9.83121,0,0,1-1.22536-2.1624,10.00433,10.00433,0,0,1-.58385-1.77316c-.10092-.4541-.15137-.92983-.23066-1.39114-.10811-.65593-.20182-1.31906-.30273-1.975a2.45855,2.45855,0,0,1,0-.32436v-1.6218a6.315,6.315,0,0,1,.15137-1.14607,17.35794,17.35794,0,0,0,.28111-1.7155,5.76662,5.76662,0,0,1,.61989-2.02544c.32436-.60547.59106-1.23978.901-1.85245.38923-.77126.77125-1.57856,1.18931-2.29935.25228-.4469.591-.85055.865-1.29024a14.417,14.417,0,0,1,1.55693-1.8957,12.65156,12.65156,0,0,1,1.19652-1.074q.36762-.30273.7208-.58385a4.95194,4.95194,0,0,1,1.27582-.87216.56946.56946,0,0,0,.22344-.12254,7.04939,7.04939,0,0,1,1.54251-1.04516c.26669-.173.58385-.25948.865-.42527.68476-.38923,1.40555-.60547,2.12635-.94425a21.15714,21.15714,0,0,1,2.1624-.7208.966.966,0,0,1,.25228-.05766,19.10171,19.10171,0,0,0,2.09032-.38923,7.20735,7.20735,0,0,1,1.79479-.1802,9.16876,9.16876,0,0,0,1.60738-.14416,3.51051,3.51051,0,0,1,.83613,0,5.13358,5.13358,0,0,0,.84334.04325,6.96946,6.96946,0,0,1,1.52809.12253c1.12445.19461,2.24889.40365,3.35892.68476.71359.1802,1.39115.43969,2.11194.59826,1.05237.209,2.06149.6271,3.09223.92983a4.81511,4.81511,0,0,0,1.00191.3532,1.13166,1.13166,0,0,1,.35319.15857,3.83414,3.83414,0,0,0,.46852.22345,4.5626,4.5626,0,0,1,1.01633.41086.42528.42528,0,0,0,.49015,0l1.67946-1.20374a.87262.87262,0,0,0,.137-.1802,1.50654,1.50654,0,0,0-.80009-.59105,11.90608,11.90608,0,0,0-1.13166-.46852c-.67034-.25949-1.34789-.49015-2.01824-.7208l-.79287-.25949a1.55821,1.55821,0,0,0-.43969-.10091.95144.95144,0,0,1-.31716-.05767,4.37516,4.37516,0,0,0-1.3551-.40364c-.41085-.11533-.82171-.24508-1.23256-.382a9.60982,9.60982,0,0,0-1.38394-.30273c-.50456-.09371-1.01633-.15858-1.52809-.24507a10.40312,10.40312,0,0,1-1.32627-.25949,5.45664,5.45664,0,0,0-1.283-.0865l-.64872-.04325a10.21382,10.21382,0,0,0-2.71021,0,6.48671,6.48671,0,0,1-1.29023.0865,16.70754,16.70754,0,0,0-1.802.14416,1.78094,1.78094,0,0,0-.32436.04325c-.91541.24507-1.87407.28111-2.78228.57664a2.70961,2.70961,0,0,1-.4469.06487,3.60571,3.60571,0,0,0-.382.07208c-1.18932.31715-2.33539.77125-3.50309,1.15328a.66315.66315,0,0,0-.29553.12253,1.54239,1.54239,0,0,1-.79287.40365,9.27662,9.27662,0,0,0-1.9822,1.074,20.34862,20.34862,0,0,0-1.96779,1.4416,18.95009,18.95009,0,0,0-2.39305,2.37143,9.11065,9.11065,0,0,0-1.4416,2.1624c-.20183.42527-.49014.80009-.68476,1.23256a7.208,7.208,0,0,0-.61989,1.4416,13.06923,13.06923,0,0,1-.43248,1.3479c-.14416.42527-.28832.85054-.44689,1.27581a18.8481,18.8481,0,0,0-.8433,3.27243,6.41484,6.41484,0,0,0-.11533,1.85966,7.9279,7.9279,0,0,1-.05047,1.283c-.036.82172.06487,1.62181.10092,2.45072a24.39616,24.39616,0,0,0,.43968,2.40747.46845.46845,0,0,0,.04325.12253,15.79287,15.79287,0,0,1,.59826,2.03987v.06487c.30274.82171.6271,1.64342.901,2.47955a12.39045,12.39045,0,0,0,1.74434,3.16431l.28831.43247a3.32945,3.32945,0,0,0,.20182.33157q.67035.85776,1.39114,1.70109c.18741.23065.32436.36761.59827.67755s.5406.61989.80008.937c.10812.12974.18741.28832.28832.42527a5.5862,5.5862,0,0,0,.47573.61268,1.79478,1.79478,0,0,1,.58384.7208.20184.20184,0,0,0,.32436.05045c.137-.16578.2667-.346.38923-.519a3.33007,3.33007,0,0,1,.9875-1.09561.12976.12976,0,0,0,.05046-.04325c.37481-.65593,1.11-.91541,1.62179-1.4416a1.21107,1.21107,0,0,1,.32436-.209,27.81706,27.81706,0,0,0,2.40747-1.60018,1.01618,1.01618,0,0,0,.15858-.25228m-12.36889,41.46035a.78566.78566,0,0,0,.60547.12974,1.74417,1.74417,0,0,1,.44689-.036,18.91258,18.91258,0,0,0,2.76786.16578c.31716.01442.64151.05046.96587.05046h1.8092a30.99179,30.99179,0,0,1,3.35172.19462,21.48607,21.48607,0,0,0,3.35172.23786,1.34053,1.34053,0,0,1,.382.04325,17.44958,17.44958,0,0,0,2.60209.46851,27.97265,27.97265,0,0,1,2.78949.52618c.60547.137,1.23257.18742,1.84525.29553a5.98443,5.98443,0,0,1,.67755.19462,1.34751,1.34751,0,0,0,.24507.07209,16.67288,16.67288,0,0,1,2.83995.58384c.49735.14416,1.01633.22345,1.52089.32436.6343.12974,1.27581.24507,1.9029.38923q1.36231.30994,2.71021.64871c.46131.10813.90821.25949,1.36231.39644a1.5205,1.5205,0,0,0,.24507.07209,8.93089,8.93089,0,0,1,1.85245.5406.721.721,0,0,0,.25228.05766,5.38444,5.38444,0,0,1,2.1624.56943,1.74408,1.74408,0,0,0,.38923.05046,1.21808,1.21808,0,0,0-.209-.23786,3.70437,3.70437,0,0,0-.46131-.23067c-.25949-.10811-.52619-.1874-.77847-.30993a48.35768,48.35768,0,0,0-4.52661-1.72992c-.74243-.29553-1.58576-.49735-2.28494-.7208s-1.36952-.46851-2.09031-.68475c-.57665-.1802-1.1677-.31715-1.75155-.46852-.18741-.05045-.382-.06487-.56222-.12974a5.6221,5.6221,0,0,0-1.55693-.41086,13.73953,13.73953,0,0,0-2.42909-.63431c-.61989-.16579-1.247-.33877-1.87408-.4541a28.4349,28.4349,0,0,0-3.2436-.59827c-.25228-.01442-.50456-.14415-.75684-.14415-1.00191-.13695-2.011-.23786-3.02015-.28832-.25949-.0072-.51177-.10812-.764-.10812a21.48828,21.48828,0,0,0-2.71021-.04324,5.8519,5.8519,0,0,1-.77126,0,5.21886,5.21886,0,0,0-1.39835.14416,14.0384,14.0384,0,0,0-1.4416.173c-.50455.10812-1.03073.10091-1.54251.16578a18.52027,18.52027,0,0,0-2.28493.45411,5.23849,5.23849,0,0,0-.66313.27391m1.12445-39.57185a1.68664,1.68664,0,0,0-.25948-.23066,2.011,2.011,0,0,0-1.75154-.06487,7.12858,7.12858,0,0,0-1.975,1.18211,11.35126,11.35126,0,0,0-.865.77126c-.23786.25228-.382.46131-.67034.78567s-.591.61988-.865.95145a1.737,1.737,0,0,0-.30993.56222,4.63493,4.63493,0,0,1-.52618.95867c-.2667.43968-.56223.87216-.80009,1.32627a4.50549,4.50549,0,0,0-.3532.96586,8.85252,8.85252,0,0,1-.53339,1.52089,7.36516,7.36516,0,0,0-.209.7208q-.49735,1.47043-.865,2.96969c-.13695.56223-.25949,1.13166-.40364,1.69388-.11532.43249-.25228.865-.36761,1.29744a2.06871,2.06871,0,0,0-.08649.50456,7.08513,7.08513,0,0,1-.21624,1.4416c-.11533.54781-.21624,1.09562-.29553,1.65063a2.82553,2.82553,0,0,1-.18741.7208,5.48505,5.48505,0,0,0-.37481,1.36951,8.90752,8.90752,0,0,1-.23066.937c-.19462.728-.28833,1.49927-.41087,2.22007a.72079.72079,0,0,1-.07928.30993,3.69032,3.69032,0,0,0-.41807,1.3479c-.12975.47573-.23786.95866-.35319,1.44159l-.18741.7208c-.036.15138-.07208.29553-.11533.43969-.11533.38923-.25949.77125-.35319,1.16769a17.35821,17.35821,0,0,1-.59106,2.03987c-.15858.41806-.22345.87217-.3604,1.29744-.20183.62709-.43249,1.25419-.65593,1.88128-.12975.3604-.28833.7136-.41807,1.0812-.07929.22345-.12253.45411-.19462.7208a.76415.76415,0,0,0,.30274.09371.38205.38205,0,0,0,.24507-.1802,8.84534,8.84534,0,0,0,.33877-.83613c.09371-.25949.19462-.52619.27391-.79289a22.73148,22.73148,0,0,0,.87937-2.42188,2.99176,2.99176,0,0,1,.25949-.65593,10.91273,10.91273,0,0,0,.3604-1.36231c.14416-.45411.26669-.9082.40365-1.36231.10091-.33156.209-.65592.30273-.98749.15858-.53339.346-1.06678.46131-1.60738a19.83685,19.83685,0,0,0,.67756-3.09223.6051.6051,0,0,1,0-.19461,27.33546,27.33546,0,0,0,.7208-2.94087,6.698,6.698,0,0,0,.10811-.89379c.06487-.52618.12254-1.06678.21624-1.593.036-.20182.22345-.38923.22345-.59826a24.74013,24.74013,0,0,0,.555-2.5228,17.73859,17.73859,0,0,1,.49014-1.72992,1.24,1.24,0,0,0,.12253-.36761,18.21512,18.21512,0,0,1,1.29744-3.97881,13.08967,13.08967,0,0,0,.83613-2.03265,3.39506,3.39506,0,0,1,.49014-.901,18.90643,18.90643,0,0,1,2.81833-3.604c.418-.40365.84333-.80009,1.29022-1.17491a3.86341,3.86341,0,0,1,1.4416-.72079c.346-.10092.69918-.19462,1.16049-.31716M257.12815,115.412a2.88332,2.88332,0,0,0,.75685-1.21094,2.39819,2.39819,0,0,1,.05766-.25228,19.59909,19.59909,0,0,0,1.01633-2.44351,18.195,18.195,0,0,0,.7208-2.07591c.209-.65593.39644-1.31906.59106-1.9822a3.05663,3.05663,0,0,0,.1802-.68475,12.69413,12.69413,0,0,1,.46851-2.07591,16.189,16.189,0,0,0,.51178-2.72462c.02882-.51176.20182-1.01632.25949-1.52809a26.48312,26.48312,0,0,1,.6343-2.83274c.07208-.33157.173-.66313.22345-1.00191a20.45354,20.45354,0,0,1,.50456-2.1624,4.5272,4.5272,0,0,0,.29553-1.18932.50445.50445,0,0,1,.04324-.18741c.30994-.77846.65593-1.54972.92262-2.3426a13.86,13.86,0,0,1,.85776-1.88128,8.23029,8.23029,0,0,1,.7208-1.09561c.28111-.382.519-.79288.79288-1.18211a8.75722,8.75722,0,0,1,1.29022-1.4416,13.57234,13.57234,0,0,1,2.22007-1.4416,3.34457,3.34457,0,0,1,1.4416-.4541c.16578-.01442.33157-.06487.5406-.10091a.46131.46131,0,0,0-.46852-.36761,2.88246,2.88246,0,0,0-.64871,0c-.44691.07208-.8866.16578-1.33349.25228a1.32629,1.32629,0,0,0-.3604.12253c-.32435.173-.6343.3604-.95866.5406a2.7677,2.7677,0,0,0-.83613.7208,14.12118,14.12118,0,0,1-1.074,1.11724,7.14307,7.14307,0,0,0-1.19652,1.75875c-.3604.67755-.692,1.3479-1.038,2.0687a20.90184,20.90184,0,0,0-1.21093,2.88319c-.14416.42527-.346.82892-.50456,1.25419-.11532.30274-.19462.59106-.30994.91542l-.346.97307a1.7446,1.7446,0,0,0-.11533.43248,8.96044,8.96044,0,0,1-.39644,1.69388,12.16516,12.16516,0,0,0-.33878,1.57855c-.06487.51177-.20182,1.00912-.30994,1.51368-.05046.21624-.08649.42528-.137.63431a4.4691,4.4691,0,0,1-.173.72079,2.39364,2.39364,0,0,0-.14416.68476,7.59694,7.59694,0,0,1-.15137.88658c-.15137.80009-.28832,1.60738-.4541,2.40747-.10092.46131-.25229.9154-.37482,1.36951-.06487.21624-.11533.46852-.1802.7208-.23787.937-.46131,1.86687-.77847,2.78229-.25228.728-.37482,1.52809-.56222,2.24889q-.19462.77845-.41807,1.55693c-.036.12253-.12974.22344-.173.346a2.47223,2.47223,0,0,0-.05046.43968m12.95276-33.93521a1.00193,1.00193,0,0,0-.92262-.07929c-.43249.11533-.85054.29553-1.283.43248a2.40027,2.40027,0,0,0-1.00191.67035c-.57665.60546-1.22537,1.15327-1.77317,1.79478a13.89669,13.89669,0,0,0-1.802,2.59488,7.43878,7.43878,0,0,0-.7208,1.57855,7.76335,7.76335,0,0,1-.64151,1.34069,4.8531,4.8531,0,0,0-.21624.53339c-.15138.42527-.31.85054-.45411,1.27581-.23787.75684-.51177,1.55693-.7208,2.27773s-.3676,1.4416-.5406,2.1624a5.46379,5.46379,0,0,1-.38923,1.3551.29537.29537,0,0,0-.04324.12253c0,.7208-.3532,1.4416-.39645,2.1624a5.59372,5.59372,0,0,1-.10811.56943c-.15137.91541-.30273,1.82362-.45411,2.739a4.21643,4.21643,0,0,1-.12974.49735,6.9417,6.9417,0,0,0-.39644,1.69388,1.1383,1.1383,0,0,1-.07929.30994,15.5564,15.5564,0,0,0-.43968,1.88849,12.63579,12.63579,0,0,1-.68476,2.28493,7.64749,7.64749,0,0,0-.30994,1.05237,4.41826,4.41826,0,0,1-.3532,1.10283,1.49914,1.49914,0,0,0-.15137.49013,17.49363,17.49363,0,0,1-.92262,2.739c-.0937.30274-.25227.59106-.3676.8938a.23786.23786,0,0,0,.29553.30273.901.901,0,0,0,.7208-.57664c.21623-.5406.41805-1.04516.62709-1.629s.43248-1.2614.57664-1.78038.21624-1.05237.32436-1.57855a4.55741,4.55741,0,0,1,.12253-.49735c.04326-.14416.10091-.28111.15137-.42527a20.22543,20.22543,0,0,0,.82171-3.38055c.00722-.06487.05047-.12253.05047-.1874a14.21011,14.21011,0,0,0,.51177-2.06869c.07928-.80009.382-1.54251.49014-2.3354.08649-.6343.22344-1.2686.346-1.90291.08649-.46131.1946-.92982.28831-1.39113a18.36432,18.36432,0,0,1,.37482-1.8957c.28111-.92984.44689-1.939.78567-2.7967s.57664-1.75875.87217-2.63813a9.9635,9.9635,0,0,1,.40365-1.02353c.382-.82171.77846-1.63622,1.16769-2.45072a22.10655,22.10655,0,0,1,1.29744-2.37143c.1802-.28832.42528-.5406.63431-.8145a8.11611,8.11611,0,0,1,2.88319-2.33539,5.76625,5.76625,0,0,1,1.22536-.38923.40367.40367,0,0,0,.346-.346m47.01051-.90824a1.75157,1.75157,0,0,0,1.4416-.56222,2.05434,2.05434,0,0,0,.2739-1.77317c-.23787-.58385-.43969-1.17491-.65593-1.75875a.49035.49035,0,0,0-.07208-.1802,3.467,3.467,0,0,1-.61268-1.34069c-.12253-.32436-.2739-.6343-.42527-.94424-.38923-.79289-.61989-1.65784-1.05957-2.4291a5.85875,5.85875,0,0,1-.346-.85776.173.173,0,0,0-.15137-.07208.18741.18741,0,0,0-.07929.15137.34588.34588,0,0,0,.06487.1802c.25228.39644.31715.87938.56222,1.29023a2.98411,2.98411,0,0,1,.23066.79288c.1874.77126.3676,1.54251.555,2.31377.11533.46131.24507.91541.35319,1.37672.05046.24507.05046.382.10812.7208s.12975.67035.18741,1.00912a.1874.1874,0,0,1-.07208.16579.28106.28106,0,0,1-.23065,0c-.2667-.173-.52618-.37481-.78567-.56222a4.87258,4.87258,0,0,0-1.67947-.8145,4.55512,4.55512,0,0,0-1.60017-.11533,2.047,2.047,0,0,0-1.00912.41806,3.19315,3.19315,0,0,0-1.15328,1.52089,1.31906,1.31906,0,0,0,1.21815,1.68667.41808.41808,0,0,0,.23787-.07208c.26669-.1802.53339-.3604.78567-.56222a1.51357,1.51357,0,0,1,.82892-.31715,8.13726,8.13726,0,0,1,2.06148.0937,1.09561,1.09561,0,0,1,.97308.61268m-1.70828-42.66411a.901.901,0,0,0-.41806-.5406c-.519-.30273-1.00912-.64871-1.52089-.97308-.28832-.1874-.66314-.38923-.88658-.52618s-.48294-.24507-.7208-.39644a17.95663,17.95663,0,0,0-2.45072-1.14607,2.1626,2.1626,0,0,1-.23787-.0937,16.75153,16.75153,0,0,0-2.88319-1.25419c-.45411-.1802-.95146-.33157-1.4416-.49015l-2.1624-.67755c-.20183-.06487-.41806-.10091-.6271-.15137-.67034-.15857-1.23977-.2739-2.00382-.49014s-1.54251-.39644-2.31376-.57664a1.44229,1.44229,0,0,0-.36761,0,.7208.7208,0,0,0,.3604.5406,1.99657,1.99657,0,0,0,1.11724.59106c1.04515.209,2.09032.46131,3.13547.7208.50456.12253.9875.30273,1.48485.44689,1.05957.31715,2.05427.78567,3.07781,1.18211a8.49956,8.49956,0,0,1,.80009.42527c.6343.32436,1.283.61989,1.91012.95146a8.52743,8.52743,0,0,1,.92983.58385c.6343.44689,1.27581.88658,1.88128,1.36231a1.77317,1.77317,0,0,0,1.4416.4541,4.32547,4.32547,0,0,1,1.02354.08649,1.44151,1.44151,0,0,0,.96586-.06487m-26.82093,2.85437a.38923.38923,0,0,0,.59106-.15858,12.11571,12.11571,0,0,1,1.18932-1.84524,26.27952,26.27952,0,0,1,2.53-3.00574c.12975-.13695.25228-.28832.37482-.43968a19.92309,19.92309,0,0,1,1.88128-1.67226c.036-.02883.10812-.07208.10812-.07208a14.09906,14.09906,0,0,1,2.03987-1.52809,1.11049,1.11049,0,0,0-.15137-.33878,6.39543,6.39543,0,0,0-.5406-.46131.66315.66315,0,0,0-.78567-.07929,3.842,3.842,0,0,0-1.25419.87938,11.3388,11.3388,0,0,1-1.16048,1.11724c-.173.15857-.33157.33877-.49015.51177a5.57806,5.57806,0,0,1-.46852.52618,15.76354,15.76354,0,0,0-2.58046,3.20756,4.64225,4.64225,0,0,0-.40365.80729,9.57247,9.57247,0,0,0-.86495,2.21285,3.09089,3.09089,0,0,0,0,.346m.40362,35.85254a.98752.98752,0,0,0-.23066.7208v1.81641q-.036,1.29743-.0937,2.58767c-.00721.28112-.07208.555-.07208.83613-.02882.7208-.02162,1.4416-.06487,2.1624-.05045.901-.13694,1.802-.19461,2.703a15.67956,15.67956,0,0,0-.06487,1.74434c-.04324.77125-.10812,1.629-.15137,2.321s-.07928,1.37673-.12253,2.0687-.12253,1.34789-.12253,2.06869a.51176.51176,0,0,1-.29554.46852,2.23432,2.23432,0,0,1-.98749.28111,1.83853,1.83853,0,0,0-.46852.1802,1.621,1.621,0,0,0,.39644,0c.519-.16578,1.0812-.07928,1.58576-.29553q.03267-.005.06474-.01322a.67033.67033,0,0,0,.48306-.8157,5.80363,5.80363,0,0,1,.11533-1.02353c.11534-.865.10813-1.75154.2667-2.6165.04325-.25949-.05045-.51177,0-.82892s.06487-.555.12254-.95866a8.669,8.669,0,0,0,.05766-1.22536v-3.604c.00721-.25948.07929-.51176.07929-.77125.04325-.56222.04325-1.12445.04325-1.68667v-5.5069a1.35521,1.35521,0,0,0-.07929-.43969.85789.85789,0,0,0-.20182-.23066m1.60016,23.26018a1.50642,1.50642,0,0,0,.29553-.26669,3.09913,3.09913,0,0,0,.19461-.5478c.16579-.75684.32436-1.47764.49015-2.19844a.613.613,0,0,0,0-.12975c0-1.18211.18741-2.357.18741-3.54633a19.30929,19.30929,0,0,1,.209-2.50838,1.63673,1.63673,0,0,0,0-.19461c-.02883-.95146.10091-1.91733.137-2.8832.01442-.37481.07208-.728.07208-1.09561v-.382a1.74451,1.74451,0,0,1,0-.38924,9.26247,9.26247,0,0,0,0-2.50838,11.73862,11.73862,0,0,1-.04325-1.23257c-.0937-1.37673-.20182-2.74624-.30994-4.123q-.05046-.59826-.12253-1.20373a.90821.90821,0,0,0-.19462-.25949,4.55579,4.55579,0,0,0,0,1.4416.79277.79277,0,0,1,0,.50456.37477.37477,0,0,0,0,.1874,8.50517,8.50517,0,0,1,.04325,1.802V81.4984c0,.29552.05045.59826.05045.89379q.05046.57663.05046,1.16049a.94371.94371,0,0,1,0,.25227,12.6215,12.6215,0,0,0-.16579,2.51559c-.00721.32436-.07928.64151-.07928.96587a3.05492,3.05492,0,0,0,0,.58385,22.57636,22.57636,0,0,1-.05767,2.63812c0,.5406-.12974,1.06679-.0865,1.60739a3.986,3.986,0,0,1-.05766.64151,8.605,8.605,0,0,0-.06487.901v1.34789a11.95163,11.95163,0,0,1-.209,1.593c-.04325.33878-.10813.64872-.15137,1.01633s-.12254.81451-.12254,1.08841v.9947m-4.31038-59.06229h.57664c.41806-1.03074.82892-2.01823,1.22536-3.02014a8.7432,8.7432,0,0,1,1.06679-1.83083l.42526-.6271a17.89921,17.89921,0,0,1,1.91733-2.1624l.05046-.04325c.67755-.87216,1.55693-1.54251,2.27773-2.37863a1.00911,1.00911,0,0,0,.37481-.61989,1.29023,1.29023,0,0,0-1.42718.04324,3.14928,3.14928,0,0,0-.31716.22345,12.32582,12.32582,0,0,0-2.36422,2.63091,1.441,1.441,0,0,1-.1802.2667,9.76617,9.76617,0,0,0-1.20373,1.593c-.23787.33156-.46853.79287-.6271,1.05236s-.31715.519-.4541.78567a2.88368,2.88368,0,0,0-.23066.59827,2.94093,2.94093,0,0,1-.346.75684,7.62641,7.62641,0,0,0-.519,1.10282,3.25085,3.25085,0,0,0-.32436,1.10282v.56943m-.16578,53.82208a3.37427,3.37427,0,0,0,.39645,0l.00755.00022a.36761.36761,0,0,0,.37447-.36062,5.35454,5.35454,0,0,0,.0865-.77125c.05766-1.48485.01441-2.97691.05766-4.46175.02162-.66314.02883-1.41277.07929-1.98941s.05046-1.16049.05046-1.74433c.036-1.05237.07928-2.10473.14415-3.1571.04325-.7208.137-1.4416.19462-2.1624v-.97308a2.34982,2.34982,0,0,1,0-.4541,8.98193,8.98193,0,0,0,.0937-2.06148.72085.72085,0,0,0-.14416-.48294.27391.27391,0,0,0-.43969.06487.46151.46151,0,0,0,0,.12975c-.05045.68475-.14416,1.34068-.14416,2.06148-.05045.85776-.0072,1.72271-.05045,2.58047-.06488,1.247-.22345,2.48675-.31715,3.73374v1.44159c-.00721.30274-.04325.59827-.04325.901-.04325.77847-.11533,1.54972-.11533,2.32819a3.60367,3.60367,0,0,0,.02162.92983,6.7183,6.7183,0,0,1,0,.89379,8.92312,8.92312,0,0,1-.05766,1.02354,10.07038,10.07038,0,0,0-.05046,1.23256,2.76783,2.76783,0,0,1-.12253.89379,1.225,1.225,0,0,0,0,.43248M269.87187,45.19174l.2739-.20182c.40365-.33877.40365-.346.21625-.87216a13.81684,13.81684,0,0,1-.63431-2.63092,9.78148,9.78148,0,0,1-.036-1.4416,20.18219,20.18219,0,0,1,.3676-3.5175c.07929-.43969.24507-.865.3676-1.29744.07209-.2667.15137-.5406.20183-.8145a.2739.2739,0,0,0-.10812-.20183.18019.18019,0,0,0-.173,0,3.79891,3.79891,0,0,0-.48294.519,6.48724,6.48724,0,0,0-1.02353,2.27772c-.10091.43969-.209.87938-.28111,1.31907a8.16567,8.16567,0,0,0,0,1.22536v.57664a2.40738,2.40738,0,0,0,.11533,1.20373,21.10078,21.10078,0,0,0,.40364,2.21285,1.36967,1.36967,0,0,0,.11533.36761,7.99449,7.99449,0,0,0,.30274.77125,3.66092,3.66092,0,0,0,.37482.50456m42.86592,7.83509a.77848.77848,0,0,0-.60547,0c-.2667.07209-.5406.12975-.8145.19462a4.91514,4.91514,0,0,0-.56223.14416c-.44689.15857-.87937.346-1.32626.51176a8.54917,8.54917,0,0,0-1.283.60547,7.92872,7.92872,0,0,1-1.51367.82892,1.49214,1.49214,0,0,0-.60547.37483,8.07288,8.07288,0,0,1-1.64342,1.13886,2.31368,2.31368,0,0,0-.36761.25228,24.50784,24.50784,0,0,1-2.06869,1.64342,3.01975,3.01975,0,0,0-.39644.32436.84336.84336,0,0,1-.40365.30994.35326.35326,0,0,0-.16579.0937l-.77846.84334c.07929.13695.173.05766.25228,0l1.8885-1.29022c.26669-.1802.53339-.3604.8145-.519.49014-.27391.87217-.69917,1.39114-.937.32436-.15137.61268-.39644.94425-.54781a5.56446,5.56446,0,0,0,.98029-.61989,3.2941,3.2941,0,0,1,.60546-.36761,7.05651,7.05651,0,0,0,1.593-.83612,3.2651,3.2651,0,0,1,.82171-.36761c.46132-.18741.92983-.35319,1.37673-.56223a1.92457,1.92457,0,0,1,.92983-.23065,1.48681,1.48681,0,0,0,.19461,0c.61989-.04325.80009-.2739.7208-.99471m-1.9894,2.61651a.36038.36038,0,0,1,.48293,0c.25228.25948.53339.49735.764.77125a1.968,1.968,0,0,1,.29553.7208c.06487.209.07207.42527.12974.6343a1.93171,1.93171,0,0,0,.20182.36761,1.50648,1.50648,0,0,0,.95146-1.12444v-.31716a1.65063,1.65063,0,0,0-.42527-1.49926.59826.59826,0,0,0-.51177-.23066,4.8724,4.8724,0,0,0-1.65784.23066,14.26475,14.26475,0,0,0-2.41468.95145,3.35688,3.35688,0,0,0-.30273.19462,1.62781,1.62781,0,0,0,.173.26669c.21624.21625.4541.40366.64872.6271a2.458,2.458,0,0,1,.60547,1.05237c.06487.25949.14415.35319.39644.25949s.29553-.23066.16578-.51177c-.05766-.13695-.12253-.2739-.173-.41086a.42535.42535,0,0,1,0-.25227.45418.45418,0,0,1,.1802-.23787.2523.2523,0,0,1,.23786.07208c.12253.11533.209.2667.32435.39644a.23788.23788,0,0,0,.38924-.04325.865.865,0,0,0,.16578-.67034,1.53536,1.53536,0,0,0-.43969-.98029,1.09536,1.09536,0,0,1-.15136-.23065M257.79849,93.442c.09371-.382.20182-.73522.29553-1.10283.18741-.77125.36761-1.54971.54781-2.321a1.1834,1.1834,0,0,0,.06486-.25228c.31-.95866.60547-1.92453.937-2.8832a13.694,13.694,0,0,1,.97308-2.31376,33.38628,33.38628,0,0,1,1.93895-3.04177,4.13049,4.13049,0,0,1,.346-.382,2.58028,2.58028,0,0,0,.38923-.43247,3.07781,3.07781,0,0,1,.901-.91542l1.283-.97307a3.20021,3.20021,0,0,1,1.03795-.50456,1.629,1.629,0,0,0,.7208-.31716.375.375,0,0,0-.09371-.11533,1.8092,1.8092,0,0,0-1.32626.14416,14.37237,14.37237,0,0,0-2.50838,1.70109,6.65291,6.65291,0,0,0-1.33349,1.65063c-.555.9947-1.15328,1.96057-1.70108,2.95527a8.03019,8.03019,0,0,0-.68476,1.5281,13.63661,13.63661,0,0,1-.7208,1.87408,8.09444,8.09444,0,0,0-.41086,1.21815c-.28833,1.01633-.57664,2.02545-.83613,3.049a2.73165,2.73165,0,0,0-.09371.764,6.54191,6.54191,0,0,0,.09371.67755h.12254m33.18559-63.45916a1.86638,1.86638,0,0,0-.25228-.07929.66317.66317,0,0,0-.19461,0,1.87408,1.87408,0,0,0-1.5281.95146,17.39952,17.39952,0,0,0-1.88849,2.76066,5.86741,5.86741,0,0,0-.88658,1.77316,11.99392,11.99392,0,0,0-.7208,1.7083,6.956,6.956,0,0,0-.41086,1.21815c-.173.53339-.33156,1.06678-.49735,1.60017a1.39121,1.39121,0,0,0,0,.77847l.02492.00453a.31.31,0,0,0,.34989-.264,8.82057,8.82057,0,0,0,.28111-.9875,9.8753,9.8753,0,0,1,.7208-1.93174,28.02469,28.02469,0,0,1,2.1624-3.96439,7.52285,7.52285,0,0,1,.52619-.65593,1.1028,1.1028,0,0,0,.33157-.59106.411.411,0,0,1,.14416-.1874c.18741-.1802.382-.346.555-.5334.33156-.3676.64871-.74242.96586-1.12444.10812-.12974.18741-.28111.32436-.48294M275.3932,32.54172c-.60547-.02883-.71359.036-.87217.49735-.23786.7208-.519,1.4416-.7208,2.1624-.25228.92983-.46852,1.88128-.65593,2.82553a12.33894,12.33894,0,0,0-.15137,1.4416,4.44746,4.44746,0,0,0,.12253,1.4416c.07209.26669.09371.5478.15138.82171a4.2591,4.2591,0,0,0,.173.54781.26671.26671,0,0,0,.11533.15136.63432.63432,0,0,0,.30273.05046.21625.21625,0,0,0,.1802-.23787c-.036-.49735-.07208-.97307-.12253-1.4416a2.03263,2.03263,0,0,1,0-.77125.80019.80019,0,0,0,0-.31715,7.27987,7.27987,0,0,1,.12253-2.37864,20.094,20.094,0,0,1,.4541-2.011c.1802-.61268.42528-1.21094.6271-1.82362a2.47227,2.47227,0,0,0,.2739-1.08841m.58385,8.41894c.06488-1.01632.11533-2.02544.21624-3.03456a8.72221,8.72221,0,0,1,.41807-2.01824c.10812-.30994.16579-.62709.25949-.937.1802-.57664.382-1.14607.56943-1.7155a2.75323,2.75323,0,0,0,.12974-.43248.28835.28835,0,0,0-.07928-.22345.209.209,0,0,0-.29553,0,1.9315,1.9315,0,0,0-.41086.49015,17.63,17.63,0,0,0-1.00191,2.72462,12.57736,12.57736,0,0,0-.49014,2.59487,11.42474,11.42474,0,0,0,.05045,2.8832,5.66569,5.66569,0,0,1,.06487.96587,1.11724,1.11724,0,0,0,.25949.64872.25947.25947,0,0,0,.22345.07208.24509.24509,0,0,0,.13695-.1802V40.78766h0m-3.59677,2.71741c-.18742-.59106-.3604-1.10282-.51177-1.61459a2.98413,2.98413,0,0,1-.1802-1.01633,1.44215,1.44215,0,0,0-.06487-.382,4.54831,4.54831,0,0,1-.0865-1.39835,23.55614,23.55614,0,0,1,1.21094-5.1393,1.44154,1.44154,0,0,0,.09371-.8145.209.209,0,0,0-.33157.05045,2.46513,2.46513,0,0,0-.51177,1.17491,6.59674,6.59674,0,0,1-.39645,1.29023,3.55352,3.55352,0,0,0-.15137.555,13.96856,13.96856,0,0,0-.31715,1.70109c-.0865.937-.1802,1.88129-.1802,2.82554a11.61185,11.61185,0,0,0,.41086,2.8039,1.00894,1.00894,0,0,0,.10091.23787.26673.26673,0,0,0,.38923.10812c.1802-.10812.33877-.24507.5406-.39644M258.73552,84.26627a1.83794,1.83794,0,0,0,.45411-.53339,19.18242,19.18242,0,0,1,1.00911-1.802,7.87094,7.87094,0,0,0,.555-1.0884,5.26888,5.26888,0,0,1,1.04516-1.37673c.12253-.12254.25227-.23787.3676-.36761a5.36278,5.36278,0,0,1,1.73713-1.31186,1.3396,1.3396,0,0,0,.21624-.14416,5.65061,5.65061,0,0,1,1.37673-.72079,3.86194,3.86194,0,0,0,.43249-.21625,1.10282,1.10282,0,0,0-.91542-.31715,2.99129,2.99129,0,0,0-1.58576.64151c-.39644.33157-.84333.60548-1.23977.92983a4.13761,4.13761,0,0,0-.67034.7208,18.89077,18.89077,0,0,0-1.39114,2.09753,14.65985,14.65985,0,0,0-.764,1.4416,6.574,6.574,0,0,0-.6271,2.08311m24.745-17.40009a6.13333,6.13333,0,0,0-.19461-.84334,2.03265,2.03265,0,0,1,1.58575-2.30655,4.24516,4.24516,0,0,1,.49735,1.3551,1.26867,1.26867,0,0,0,.2667.64872,7.66793,7.66793,0,0,1,.39644.66313,3.40943,3.40943,0,0,0,1.283,1.33348.99474.99474,0,0,0,.7208.12253.65586.65586,0,0,0,.18019-.12974,3.45318,3.45318,0,0,0-.32435-.35319,4.57707,4.57707,0,0,1-1.72992-3.049,2.34229,2.34229,0,0,1,0-.88658.32438.32438,0,0,0-.30995-.40365,1.48488,1.48488,0,0,0-.95145.06487c-.21624.09371-.43969.16579-.65593.2667a2.16239,2.16239,0,0,0-1.27581,1.88128,2.57322,2.57322,0,0,0,.31715,1.49927,1.07437,1.07437,0,0,0,.18741.173m8.02249-27.26063a.52632.52632,0,0,0,.12975.05046,4.49082,4.49082,0,0,0,1.00912-1.05958,3.72644,3.72644,0,0,1,1.074-1.10282,1.0162,1.0162,0,0,0,.18741-.16579,8.7657,8.7657,0,0,1,1.32627-1.23256c.51177-.382.901-.77126,1.4416-1.20374s1.08841-.85054,1.65063-1.247c.33157-.23786.70638-.40365,1.05236-.61989a1.39821,1.39821,0,0,0,.61268-.50456.72081.72081,0,0,0-.89379-.173,6.61705,6.61705,0,0,0-1.57134.87938c-.75684.67034-1.54972,1.29023-2.32818,1.93895a5.23245,5.23245,0,0,0-.8073.82892c-.3604.43968-.7208.80008-1.0812,1.20373-.56222.7208-1.10282,1.4416-1.65063,2.1624-.05046.06487-.0865.14416-.15137.24507m6.31419,18.229c.46853-.49014.937-.95145,1.37673-1.44159a19.38941,19.38941,0,0,1,1.593-1.75876c.14416-.12974.25228-.209.43969-.37481s.38923-.33878.56222-.52618a3.84892,3.84892,0,0,1,.9875-.82892,1.48514,1.48514,0,0,0,.35319-.28112,9.37066,9.37066,0,0,1,1.91012-1.44159c.18741-.11533.35319-.24508.52618-.37482l1.18932-.88658a7.86035,7.86035,0,0,1,.92983-.7208c.39644-.25949.82171-.47573,1.22536-.7208a1.06686,1.06686,0,0,0,.50456-.38923c-.07209-.14416-.18741-.04325-.2667-.04325a5.76626,5.76626,0,0,0-1.68667.79288,4.67735,4.67735,0,0,1-.77846.4541c-.35319.209-.71359.50456-1.074.7208-.85055.51177-1.54251,1.22536-2.3426,1.802a9.86884,9.86884,0,0,0-.865.77125,2.58017,2.58017,0,0,1-.7208.56222,1.20385,1.20385,0,0,0-.32435.31.99483.99483,0,0,1-.25949.28111,2.112,2.112,0,0,0-.7208.7208c-.46131.50456-.85054,1.08841-1.34069,1.55693a11.532,11.532,0,0,0-1.13165,1.31906.382.382,0,0,0-.0937.43248m-14.95659-17.5947a.16579.16579,0,0,0,.23787-.12975,5.45733,5.45733,0,0,0,.2667-.85775,4.512,4.512,0,0,1,.37481-1.29744,5.21928,5.21928,0,0,0,.24507-.72079,22.79076,22.79076,0,0,1,1.4416-3.31568,23.90041,23.90041,0,0,1,1.37673-2.2561,5.477,5.477,0,0,0,.2739-.49015.84354.84354,0,0,0-.33157-.06487,2.30643,2.30643,0,0,0-.6343.30274,3.05619,3.05619,0,0,0-1.01633,1.38393c-.23066.5406-.49735,1.05957-.7208,1.593a5.33932,5.33932,0,0,0-.173.5478c-.21624.74242-.43969,1.50647-.66313,2.22727-.05046.16578-.11533.32436-.173.48294a.77821.77821,0,0,0-.05767.11532A16.33378,16.33378,0,0,0,282.803,40.211a.13691.13691,0,0,0,.04324.05046m30.54027,44.52377a4.77191,4.77191,0,0,0-.56223,0c-.44689.05766-.901.10091-1.34068.20182a2.4002,2.4002,0,0,0-1.18932.7208.35322.35322,0,0,0-.05767.3604,2.16237,2.16237,0,0,0,.728,1.16049,4.42568,4.42568,0,0,0,2.53721,1.00191.77126.77126,0,0,0,.7208-.2667.33155.33155,0,0,0-.12254-.53339,1.77365,1.77365,0,0,0-.50456-.10091,6.32832,6.32832,0,0,1-1.60738-.4541,5.41255,5.41255,0,0,1-1.10282-.65593.54778.54778,0,0,1-.15137-.209.20182.20182,0,0,1,.11533-.25949,15.05233,15.05233,0,0,1,1.60018-.16578.98752.98752,0,0,0,.92983-.67035.41078.41078,0,0,0,0-.15858M279.81169,32.448c-.46131-.10091-.5406-.08649-.7208.209a3.60408,3.60408,0,0,0-.54781,1.49927,3.44563,3.44563,0,0,1-.173.7208c-.137.42527-.30994.84333-.46131,1.2686a1.125,1.125,0,0,0-.06487.24507c-.08649.65593-.18741,1.31907-.25228,1.9822-.0865.54781-.02163,1.11-.0865,1.66505a6.21337,6.21337,0,0,0-.05045,1.34069,1.31178,1.31178,0,0,0,.15137.591.14417.14417,0,0,0,.1802-.15137c.04325-.64151.08649-1.29023.137-1.93174.02162-.25949.05766-.519.0937-.77125a22.82035,22.82035,0,0,1,.53339-2.53c.16579-.59826.2667-1.21815.43969-1.81641a11.94369,11.94369,0,0,1,.5406-1.4416,3.79148,3.79148,0,0,0,.2739-.90821m4.09415-.26669a1.52074,1.52074,0,0,0-.3604.25228,4.93018,4.93018,0,0,0-.7208,1.44159,6.48733,6.48733,0,0,1-.67034,1.593,5.37744,5.37744,0,0,0-.49736,1.247c-.12974.45411-.25948.90821-.39644,1.36231a2.667,2.667,0,0,0-.21624,1.00191.519.519,0,0,1-.05766.25228,4.00762,4.00762,0,0,0-.1802,1.65784.56184.56184,0,0,0,0,.12974.26668.26668,0,0,0,.2739.22345.3964.3964,0,0,0,.23786-.1802,1.4415,1.4415,0,0,0,.10091-.50456,9.50007,9.50007,0,0,1,.39645-2.27772,6.9987,6.9987,0,0,1,.44689-1.4416,5.52855,5.52855,0,0,0,.30274-1.11724,11.53331,11.53331,0,0,1,.87216-2.28493c.15858-.33157.30274-.67035.43248-1.00912a1.28986,1.28986,0,0,0,0-.37482m14.68267,9.99028a2.56658,2.56658,0,0,0,.41807.15137.27391.27391,0,0,0,.30994-.1802c.11533-.27391.21624-.555.33878-.82171a1.44143,1.44143,0,0,1,.2667-.43248,13.854,13.854,0,0,1,2.31376-1.92454c.53339-.32435,1.0884-.60547,1.63621-.9082a2.88315,2.88315,0,0,1,.88659-.36761,1.44179,1.44179,0,0,0,.47573-.19461,6.58784,6.58784,0,0,1,2.78949-.8145,1.04571,1.04571,0,0,0,.19462,0,5.76615,5.76615,0,0,1,1.32626-.25949.12975.12975,0,0,0,.137-.173.20182.20182,0,0,0-.12254-.12974,3.48148,3.48148,0,0,0-1.73713.16578,1.55673,1.55673,0,0,1-.555.15137,2.06149,2.06149,0,0,0-1.21094.38923,2.6237,2.6237,0,0,1-.82171.3604,4.57777,4.57777,0,0,0-.7208.29553c-.31715.137-.6271.28111-.937.43248-.173.08649-.33877.1874-.50456.28111l-1.75154,1.0812a4.32475,4.32475,0,0,0-1.16769.901,7.591,7.591,0,0,1-.555.5406,3.93552,3.93552,0,0,0-.92262,1.30464,1.1315,1.1315,0,0,0-.04324.28112m-1.93178-.937.41086.28111a.454.454,0,0,0,.15857-.12975,3.04188,3.04188,0,0,1,.6271-1.04515,3.28165,3.28165,0,0,0,.23787-.30274,8.318,8.318,0,0,1,1.78758-1.75875,5.59327,5.59327,0,0,1,1.04516-.61989c.83613-.43968,1.67946-.87217,2.52279-1.30464a3.55365,3.55365,0,0,1,.53339-.23066,6.69606,6.69606,0,0,0,1.05958-.46852,6.15509,6.15509,0,0,1,1.16049-.382c.28832-.0865.591-.12254.87937-.20183a.31712.31712,0,0,0,.15858-.173c.02883-.07208-.10091-.173-.22345-.173a.6265.6265,0,0,0-.12974,0,7.525,7.525,0,0,0-1.86687.50456,5.67916,5.67916,0,0,1-.7208.2739,13.34159,13.34159,0,0,0-2.40746,1.23978c-.59106.37481-1.17491.7208-1.74434,1.09561-.25949.16579-.48293.36761-.7208.555a.9009.9009,0,0,1-.14415.12974,5.86014,5.86014,0,0,0-1.63622,1.3479c-.30273.30273-.591.67755-.87937,1.02353a1.33379,1.33379,0,0,0-.12975.35319m-7.29448,33.4595a.7207.7207,0,0,0-.12974-.12974,3.72653,3.72653,0,0,1-1.80921-2.1624c-.0937-.21624-.15857-.43969-.24507-.66313a.24508.24508,0,0,0-.41086-.11533.72072.72072,0,0,0-.23065.29553,2.739,2.739,0,0,0,.05045,1.95336,1.074,1.074,0,0,0,.67756.64872,13.73825,13.73825,0,0,0,1.49926.37481.50456.50456,0,0,0,.59106-.19461M273.59839,95.15754a4.8003,4.8003,0,0,0,1.60018.7208,7.74843,7.74843,0,0,0,1.12444.2739c.77847.11533,1.49927.29553,2.22007.41807a16.31936,16.31936,0,0,0,2.81832.32436c.4469,0,.8938.04324,1.3479,0a2.54451,2.54451,0,0,0,.937-.22345.36761.36761,0,0,0-.39644-.173c-1.13166-.05046-2.19844-.07929-3.29405-.14416-.53339-.036-1.06679-.15137-1.60018-.19461a19.1732,19.1732,0,0,1-2.63092-.64151,14.941,14.941,0,0,0-1.88849-.41807,1.2043,1.2043,0,0,0-.23066,0m41.67662-49.94417a.82891.82891,0,0,1-.1802.72079l-.46131.42528a1.73747,1.73747,0,0,0,.05045.29552.85054.85054,0,0,1-.06487.80009,3.3732,3.3732,0,0,0-.25228.59106c-.31715.88658-.64151,1.77316-.95146,2.667-.11532.32436-.209.65593-.30273.9875a1.27483,1.27483,0,0,0-.0072.2739,1.0232,1.0232,0,0,0,.24506-.25949,5.18984,5.18984,0,0,1,.61268-1.27581.61274.61274,0,0,0,.07208-.1802,9.24766,9.24766,0,0,1,.67035-1.61459c.22345-.48294.346-.97308.59106-1.48485s.49014-1.01632.72079-1.52809c.02884-.05766.09371-.10812.09371-.16578a.27393.27393,0,0,0-.21625-.38924.72078.72078,0,0,0-.61988.137M308.204,53.56022a9.02446,9.02446,0,0,1-.3604-2.8832,1.0593,1.0593,0,0,0-.05046-.25228,1.28277,1.28277,0,0,0-.0937-.1874,2.38581,2.38581,0,0,0-.901.48293.3604.3604,0,0,0-.10091.41086c.07929.30994.14416.62709.20182.94424a3.76248,3.76248,0,0,1,0,1.66505.49014.49014,0,0,0,.10813.519,3.26526,3.26526,0,0,0,1.18211-.7208M302.106,57.72644a5.0453,5.0453,0,0,0,.97308-.56943.39643.39643,0,0,0,.137-.46852,5.08882,5.08882,0,0,1-.18741-1.75154,6.10713,6.10713,0,0,0-.11533-.91542.58383.58383,0,0,0-.6343,0,1.51353,1.51353,0,0,0-.43248.46131.42525.42525,0,0,0,0,.30994,9.37064,9.37064,0,0,1,.23066,2.67417,1.10248,1.10248,0,0,0,.05766.209m-7.381,11.69859c-.25948-.28111-.49014-.555-.77125-.85055s-.16579-.73521-.39644-1.0884a1.11013,1.11013,0,0,0-.29553.14415c-.29553.28112-.59106.56223-.865.865a.52619.52619,0,0,0,0,.7208,8.00681,8.00681,0,0,0,.85054.7208.98751.98751,0,0,0,.87217.10812.75683.75683,0,0,0,.60547-.61989m15.872-20.77344a6.08381,6.08381,0,0,0-1.11.346.27391.27391,0,0,0-.16578.29553,4.32488,4.32488,0,0,0,.14416.72079,2.88323,2.88323,0,0,1,0,1.4416c-.07929.41807-.1802.83613-.25949,1.2614a.22346.22346,0,0,0,.31.25949c.25948-.10812.50455-.23786.78566-.36761a2.881,2.881,0,0,0,0-.43968,3.07785,3.07785,0,0,1,0-1.72271.50417.50417,0,0,0,0-.19462,5.853,5.853,0,0,1,.28113-1.57133M288.6631,68.04829l.209.50456a3.74116,3.74116,0,0,0,.7208.07928,1.593,1.593,0,0,1,1.21815.49736c.28832.26669.56222.5406.82892.8145a.9154.9154,0,0,1,.16579.2739,5.65777,5.65777,0,0,0,.30273.7208,1.69386,1.69386,0,0,1,.10812,1.54251,4.81482,4.81482,0,0,1-.46131,1.13165.829.829,0,0,0-.04324.27391.7208.7208,0,0,0,.58384-.41086,4.62027,4.62027,0,0,0,.46131-2.44351,4.00031,4.00031,0,0,0-.83613-1.64342,3.02731,3.02731,0,0,0-1.4416-.8145c-.56222-.12974-1.11723-.31715-1.79478-.51177M305.292,51.9168c-.33878.18741-.61269.33878-.88659.50456a.3604.3604,0,0,0-.13695.40365,5.65848,5.65848,0,0,0,.15136.82171,6.487,6.487,0,0,1,.15137,1.72271v.3604a1.02354,1.02354,0,0,0,.32436-.04325c.25228-.14416.49735-.31715.7208-.4541a.5339.5339,0,0,0,0-.1802,4.48338,4.48338,0,0,1-.22345-2.09032,2.285,2.285,0,0,0-.12253-1.04516M271.29905,108.204a2.73208,2.73208,0,0,0,.35319-.33877,5.14668,5.14668,0,0,0,.64151-1.80921,15.94982,15.94982,0,0,0,.12974-2.16239,9.12438,9.12438,0,0,1,.15858-1.4416,5.10338,5.10338,0,0,1,.23786-1.2614.1658.1658,0,0,0-.07208-.14416.20184.20184,0,0,0-.173.04325.80023.80023,0,0,0-.1802.25949c-.12973.30994-.25227.68475-.3676,1.03073a2.16242,2.16242,0,0,0-.06487.6271,14.005,14.005,0,0,1-.22345,2.94806,1.88827,1.88827,0,0,0-.06486.382,3.09957,3.09957,0,0,1-.24507,1.18932,2.96164,2.96164,0,0,0-.11533.67755m.72077-7.56839a.72088.72088,0,0,0-.24507.11533,2.88277,2.88277,0,0,0-.22344.46131,8.09435,8.09435,0,0,0-.44689,2.65254.92955.92955,0,0,0,0,.19462,5.34125,5.34125,0,0,1-.46852,3.13548c-.14416.35319-.30273.71359-.43969,1.074a3.604,3.604,0,0,0-.08649,1.65063.15856.15856,0,0,0,.20182-.173,10.496,10.496,0,0,1,.23066-1.4416,2.78227,2.78227,0,0,1,.40365-1.0812,4.55537,4.55537,0,0,0,.64151-2.00382v-1.54251c.00722-.25228.05046-.48293.05046-.7208a4.92368,4.92368,0,0,0,0-.72079,1.65081,1.65081,0,0,1,.10091-.7208,5.84513,5.84513,0,0,0,.209-.85776m34.24518-43.13262c.0937.11532.15857.19461.23065.2739a1.44155,1.44155,0,0,1,.61268.7208,4.58414,4.58414,0,0,1,.30274.83613h0a.2406.2406,0,1,0,.4613.137,1.074,1.074,0,0,0,.4469-.88659.72077.72077,0,0,1,.1802-.52619.40364.40364,0,0,0-.13695-.72079,6.15029,6.15029,0,0,1-.555-.43248.48292.48292,0,0,0-.53339-.11533,1.71553,1.71553,0,0,0-.97308.7208m-.173-11.3598a1.99694,1.99694,0,0,0-.37481-.40365,10.04874,10.04874,0,0,0-1.4416-.82892c-.7208-.2739-1.4416-.57664-2.1624-.91541a5.13941,5.13941,0,0,0-1.4416-.39644,1.60735,1.60735,0,0,0-.7208.15137,1.39115,1.39115,0,0,0,.30274.24507c.764.28832,1.58575.52618,2.30655.84333a18.97915,18.97915,0,0,1,2.8832,1.21094.62711.62711,0,0,0,.68476.09371m2.05427-8.22432a.50451.50451,0,0,0-.20182-.11533,1.73,1.73,0,0,0-.43969.07929,9.65109,9.65109,0,0,0-1.22535.40365,15.54055,15.54055,0,0,0-2.40027,1.10282A17.78846,17.78846,0,0,0,301.7312,40.939a4.69942,4.69942,0,0,0-.46853.52618.23068.23068,0,0,0,0,.173.12974.12974,0,0,0,.11534,0,.49743.49743,0,0,0,.173-.08649,6.01917,6.01917,0,0,0,.72079-.57664,5.42045,5.42045,0,0,1,1.94616-1.22536c.41806-.1802.82892-.41086,1.22536-.58385s.79287-.32435,1.18932-.49735l1.43439-.59826a.49768.49768,0,0,0,.10812-.12254M276.25094,108.514a2.88322,2.88322,0,0,0,.7208-1.19653c.07929-.22344.15137-.47573.22344-.7208a2.04621,2.04621,0,0,0,.11533-.43248c.07208-1.05958.346-2.08311.519-3.12106a.959.959,0,0,0-.04324-.27391.72082.72082,0,0,0-.56944.57664c-.0937.30994-.19462.61268-.25949.92983a9.19192,9.19192,0,0,0-.209,1.2686,9.07524,9.07524,0,0,1-.33156,1.90291,4.47532,4.47532,0,0,0-.07929.50456c-.02163.16578-.05767.33157-.10091.57664m5.269.3388a1.11,1.11,0,0,0,.58384-.7208,5.24039,5.24039,0,0,0,.59106-1.69388c.06487-.33158.07929-.67756.137-1.01633.11533-.7208.18741-1.4416.28111-2.1624a1.72316,1.72316,0,0,1,.11533-.3676c.07208-.20183.15137-.39645.25228-.64152a.721.721,0,0,0-.33157,0,3.20042,3.20042,0,0,0-.7208,1.8885,13.89193,13.89193,0,0,1,0,1.54971,6.6309,6.6309,0,0,1-.40364,1.81642c-.173.41086-.31715.83613-.49735,1.33348M299.00657,65.1723c.25949-.4469.25228-.49015,0-.7208a5.39988,5.39988,0,0,1-.41086-.40365l-.00594-.00594a.19463.19463,0,0,1,.00594-.27517.36761.36761,0,0,1,.29553,0,1.70143,1.70143,0,0,1,.32436.19461l.31.1802a1.2978,1.2978,0,0,0,.12974-.3604.42531.42531,0,0,0-.12253-.28832,10.67928,10.67928,0,0,0-.82892-.78567,4.62766,4.62766,0,0,0-1.50648,1.21095,9.50263,9.50263,0,0,1,.82892.48294c.22345.16578.41086.37481.6271.555a3.2149,3.2149,0,0,0,.3604.22345M279.81889,37.88284a.5476.5476,0,0,0,.10812-.14416c.16578-.555.29553-1.11724.48294-1.66505.12254-.33157.32436-.69917.47573-1.05237.32436-.77125.64151-1.54971.95145-2.32818a.9081.9081,0,0,0,.05767-.30994.18021.18021,0,0,0-.2739-.13695,5.00223,5.00223,0,0,0-.59827.7208,2.50861,2.50861,0,0,0-.29553.77846c-.0937.51177-.30994.96587-.43969,1.4416a17.55732,17.55732,0,0,0-.51176,1.92454,3.04419,3.04419,0,0,0-.06487.764h.10812m-9.96145,69.01651a.37481.37481,0,0,0,.33157-.28831,5.51409,5.51409,0,0,0,.45411-1.93174,14.21315,14.21315,0,0,1,.15137-2.05428,12.52123,12.52123,0,0,0,.06487-1.55693,1.326,1.326,0,0,0-.23066.19462,2.76793,2.76793,0,0,0-.43249,1.593v1.67946a6.91971,6.91971,0,0,1-.18019,1.27582c-.05046.3604-.0937.71359-.14416,1.0812m30.54747-50.75868a1.0596,1.0596,0,0,0-.77126.555.80728.80728,0,0,0-.0937.7208,4.7784,4.7784,0,0,1,.16578,1.00191,1.59264,1.59264,0,0,1,0,.6271.43971.43971,0,0,0,.15137.4541,1.12445,1.12445,0,0,0,.87938-.66313,12.90712,12.90712,0,0,1-.28832-1.30465,14.0607,14.0607,0,0,1,0-1.4416m-2.90483-17.83257c.21624-.173.43968-.33157.64872-.519a11.94348,11.94348,0,0,1,2.30655-1.52809,7.4317,7.4317,0,0,0,1.1677-.67755,4.43264,4.43264,0,0,1,1.19653-.60547c.519-.209,1.04516-.40365,1.55693-.61268a2.82527,2.82527,0,0,0,.41085-.27391.872.872,0,0,0-.28111-.11532,1.17476,1.17476,0,0,0-.37481.0937c-.67035.29553-1.34069.57664-1.98941.92983-.5406.29553-1.10282.555-1.65063.83613a10.24978,10.24978,0,0,0-1.19653.7208,15.21961,15.21961,0,0,1-1.4416,1.09561,1.05241,1.05241,0,0,0-.37481.63431m7.9,19.77873c-.46852.209-.98029.23786-1.18932.77846a.78546.78546,0,0,0,.10812.173,3.05622,3.05622,0,0,1,.83613.95867.2667.2667,0,0,0,.37481.16578.40365.40365,0,0,0,.23787-.46852c-.02884-.10092-.10812-.20183-.10812-.30274-.07209-.27391.036-.36761.32435-.36761h.18741a.2596.2596,0,0,0,.07208-.04324.39643.39643,0,0,0-.19461-.47573l-.64872-.42527M289.629,69.944a1.77328,1.77328,0,0,0,.28111.38923,4.17337,4.17337,0,0,1,.57664.7208,1.18932,1.18932,0,0,1,.16579,1.26861,4.32476,4.32476,0,0,1-.16579.41085,1.13861,1.13861,0,0,0,.28832-.18741,7.20718,7.20718,0,0,0,.51178-1.03074,1.13167,1.13167,0,0,0-.75684-1.64342.77845.77845,0,0,0-.90821.0937m6.83317-2.29934-.8073-.77847a1.34135,1.34135,0,0,1-.137-.13695l-.00444-.00579a.30994.30994,0,0,1,.0621-.4339l.15858-.173a1.65052,1.65052,0,0,0-.35319-.25949.53339.53339,0,0,0-.49014.07208,1.7587,1.7587,0,0,0-.61268.7208.72086.72086,0,0,0,.16579.16579,4.2814,4.2814,0,0,1,1.14606.92983c.37482.38923.46852.382.865-.12975M281.88038,104.1315a5.04566,5.04566,0,0,0-.7208,2.1624,3.86341,3.86341,0,0,1-.23787,1.52809.209.209,0,0,0,.12975.29553,1.1677,1.1677,0,0,0,.49014-.68476c.06488-.20182.15138-.40364.21624-.60547a4.57676,4.57676,0,0,0,.24507-1.7155c0-.15136.01442-.32435,0-.44689s-.04324-.23787-.10091-.51178m3.83465-4.01486.0014.02313a.28831.28831,0,0,0,.31576.258,2.941,2.941,0,0,0,1.08841-.07929,3.71179,3.71179,0,0,1,.72079-.07929,11.84316,11.84316,0,0,0,2.42189-.382.98758.98758,0,0,0,.21624-.12974.39644.39644,0,0,0-.49735-.24507c-.8938.26669-1.84525.13695-2.739.41807a.67076.67076,0,0,1-.18741,0,3.26989,3.26989,0,0,0-.51177,0c-.2739.04324-.53339.12974-.80008.19461m4.51221-7.8423a2.73353,2.73353,0,0,0-.11533.519c-.07208.51176-.12975,1.01633-.20183,1.52809-.08649.65593-.1802,1.31186-.2739,1.975a6.36387,6.36387,0,0,0-.11533.88659.48293.48293,0,0,1-.36761.52618,2.11941,2.11941,0,0,0-.209.0937.12974.12974,0,0,0,.1802.14416c.14416-.036.28111-.10812.42527-.15137a.51176.51176,0,0,0,.38923-.519c.0937-.96587.21624-1.92453.33157-2.8832V92.40408a.43255.43255,0,0,0-.0865-.13695m7.82068-31.13131a1.04512,1.04512,0,0,0,.72079-.60547c-.08649-.32435-.209-.69917-.2739-1.04515s-.0865-.70639-.12974-1.06679a1.34066,1.34066,0,0,0-.82171.7208,3.44612,3.44612,0,0,0,.12974.39644,2.37137,2.37137,0,0,1,.20182,1.00191.72082.72082,0,0,0,.18741.58385m2.19844,1.33348.692.26669a.57661.57661,0,0,0-.10091-.67755c-.5478-.61268-.77125-.6343-1.38393-.07929-.12253.10812-.23786.23786-.35319.35319a.92262.92262,0,0,0,.50456.41807c.1802.11532.346.25228.519.382a.82891.82891,0,0,0,.43969.38923c.05046-.40365-.50456-.56223-.36761-1.01633m3.43821-2.71019.41806-.12254a.245.245,0,0,0,0-.0865c-.30273-.591-.43248-.62709-.97308-.26669a6.38974,6.38974,0,0,0-.56222.42527.22345.22345,0,0,0,0,.382,3.09181,3.09181,0,0,1,.8073.6271l.0114.01529a.27392.27392,0,0,0,.385.04237.3604.3604,0,0,0,.15858-.43969c-.06488-.1802-.14417-.35319-.23787-.57664m-25.86948,50.13881a4.05106,4.05106,0,0,0,.46131-.59827,3.24352,3.24352,0,0,0,.49014-1.57855c-.02162-.67034.07209-1.39114.11533-2.11193v-.43249a.19462.19462,0,0,0-.28111.20182,15.13926,15.13926,0,0,0-.18741,1.91012,4.10141,4.10141,0,0,1-.60546,2.27051.526.526,0,0,0-.05046.1802.67035.67035,0,0,0,.06487.15858m2.99132-4.577a7.46836,7.46836,0,0,0-.56944.64151,1.67225,1.67225,0,0,0-.22344.92262,4.14441,4.14441,0,0,1-.05767,1.08841.90086.90086,0,0,0,.12975.38922,1.31875,1.31875,0,0,0,.21624-.1874,3.3229,3.3229,0,0,0,.49014-1.4416,7.776,7.776,0,0,0,.0937-1.15328.973.973,0,0,0-.08649-.25229m15.3386-42.383a.8938.8938,0,0,0,.61989-.4469.32435.32435,0,0,0,.04325-.23787,3.28676,3.28676,0,0,1-.10812-1.14606,1.20441,1.20441,0,0,0,0-.19462.25949.25949,0,0,0-.22345-.26669.38923.38923,0,0,0-.28111.11533,5.566,5.566,0,0,0-.35319.5478,9.09026,9.09026,0,0,1,.33878,1.629m5.6006-2.14077h.43969a.20189.20189,0,0,0,0-.10812.49735.49735,0,0,0-.67755-.1802c-.19462.0865-.39644.15858-.59106.23066a.38923.38923,0,0,0,.07929.53339,6.19861,6.19861,0,0,1,1.16049,1.12444.60547.60547,0,0,0,.39644-.53339,2.96964,2.96964,0,0,1-.85775-1.08841m-4.5915,4.4113.23065-.25949a.35314.35314,0,0,0,0-.12253,2.3206,2.3206,0,0,0-.2739-.43248.30993.30993,0,0,0-.28111-.06487,1.74427,1.74427,0,0,0-.79288.7208.4615.4615,0,0,0,0,.15136c.173.10813.35319.20183.52619.33157s.32436.28832.49735.41086a.94428.94428,0,0,0,.53339.30994.173.173,0,0,0,0-.28832,1.44167,1.44167,0,0,1-.42527-.75684m14.9638-15.20887a.54782.54782,0,0,0,.1802-.07208,9.77435,9.77435,0,0,0,.66313-1.73712,1.06694,1.06694,0,0,0,0-.31715.18021.18021,0,0,0-.23066-.16579l-.9082.32436a5.32614,5.32614,0,0,1,.19461.94425,6.2219,6.2219,0,0,0,.06487,1.00191M286.60883,68.22128l-.67035.51177a2.63818,2.63818,0,0,1,1.247.98028,1.17487,1.17487,0,0,0,.764-.7208c-.48293-.20182-.85775-.59826-1.34068-.77125m1.37674,38.38256a3.93376,3.93376,0,0,0,1.32626-2.98411.72069.72069,0,0,0-.21624.15137,4.64952,4.64952,0,0,0-.47573,1.12445.61988.61988,0,0,1-.346.50455.58385.58385,0,0,0-.29553.7208,2.38,2.38,0,0,1,0,.49736m.16579-35.348a1.36971,1.36971,0,0,0-.137.33878,1.98943,1.98943,0,0,0,.519,1.48484l.00095.00117a.865.865,0,0,0,1.2172.12137.36752.36752,0,0,0,.05767-.137c-.83613-.12253-1.11-.79287-1.40556-1.44159-.05045-.11533-.0865-.23786-.12974-.35319h-.12254m-8.01529,33.2793a3.43815,3.43815,0,0,0,.95146-1.8957.76413.76413,0,0,0,0-.31715.25229.25229,0,0,0-.28832-.20183.43248.43248,0,0,0-.23066.1802.77119.77119,0,0,0-.05766.24507c-.10092.39643-.1802.80009-.29553,1.18932a1.61459,1.61459,0,0,0-.05046.79288m12.36169-37.46714a4.78626,4.78626,0,0,0,1.26861-1.33348.82171.82171,0,0,0,0-.83613.80011.80011,0,0,0-.2739.12974,3.71256,3.71256,0,0,0-.40365.57664,5.54289,5.54289,0,0,0-.591,1.4416m15.62693-15.49718c.05046.13695.0937.32436.173.49735a.21624.21624,0,0,0,.37481,0,2.69568,2.69568,0,0,0,.35319-1.22536.41075.41075,0,0,0-.137-.26669.32436.32436,0,0,0-.40365.08649,1.80927,1.80927,0,0,0-.35319.87938M294.69619,64.48754a1.20384,1.20384,0,0,0,.40365-.18741.72083.72083,0,0,0,.15137-.40365,8.65318,8.65318,0,0,0-.10091-.96586.209.209,0,0,0-.33878-.12975.65592.65592,0,0,0-.32436.64872c.05046.30274.12254.61989.209,1.02354m-14.47364,37.79149a.95206.95206,0,0,0-.209-.1802c-.20183-.08649-.39644-.01441-.39644.173a11.30986,11.30986,0,0,1-.41086,1.87408.79287.79287,0,0,0,.28111-.09371,2.25631,2.25631,0,0,0,.33878-.53339c.15137-.39644.25949-.80729.38923-1.22536m25.66045-48.517a.3532.3532,0,0,0,.42527-.20182,1.65784,1.65784,0,0,0,.12974-1.06679.25227.25227,0,0,0-.43968-.12974,1.08119,1.08119,0,0,0-.07929,1.36952M303.33857,54.937a.894.894,0,0,0,.05767.30994.36038.36038,0,0,0,.23786.23787.30991.30991,0,0,0,.25949-.12974,8.43162,8.43162,0,0,0,.1802-1.00191.26669.26669,0,0,0-.20182-.29553.31716.31716,0,0,0-.3604.20182,1.32625,1.32625,0,0,0-.173.7208m8.94511,31.16015a1.39123,1.39123,0,0,0,.25228.25228c.30994.13695.61989.2739.937.38923a.82878.82878,0,0,0,.30994,0l.0213-.00394a.18741.18741,0,0,0,.13728-.22672l-.00667-.03932a.60547.60547,0,0,0-.71413-.47244c-.25228.00721-.555.07208-.97308.07208M295.8783,39.61276a7.97243,7.97243,0,0,0-1.15328,1.10282.18014.18014,0,0,0-.05045.11533.47567.47567,0,0,0,.05766.28832.42526.42526,0,0,0,.29553,0,.25948.25948,0,0,0,.15137-.11533c.2739-.43248.53339-.87217.80009-1.30464l-.10092-.09371M310.8421,50.987a.72081.72081,0,0,0,.49735-.519,1.86,1.86,0,0,0,.15137-.61267.24511.24511,0,0,0-.11533-.20183.26675.26675,0,0,0-.23066,0,1.00912,1.00912,0,0,0-.30994,1.31186m-9.44968,5.10325a.72071.72071,0,0,0-.21624.10092,1.39825,1.39825,0,0,0-.30274.764l-.00046.00408a.31716.31716,0,0,0,.28157.34912.28833.28833,0,0,0,.33878-.21624.92263.92263,0,0,0-.07208-.98029M287.69,104.17475a.46129.46129,0,0,0-.382.382,1.57855,1.57855,0,0,0,.08649,1.25419,1.97494,1.97494,0,0,0,.29553-1.63621m.7208-.42527a2.11194,2.11194,0,0,0,.60547-1.4416.12254.12254,0,0,0-.209,0,2.40745,2.40745,0,0,0-.43969,1.38393.10786.10786,0,0,0,.04325,0M287.0413,70.25394l-.7208-.173a.11538.11538,0,0,0-.05766,0,1.27578,1.27578,0,0,0,.56943.865.67032.67032,0,0,0,.20182-.7208m-2.74624-3.22919a.49016.49016,0,0,0,.07929.50456,2.88323,2.88323,0,0,0,.901.83613.26669.26669,0,0,0-.15858-.30994c-.36761-.2667-.37481-.8145-.82171-1.03075M310.82769,37.4792a5.045,5.045,0,0,0-1.37673,0,1.10293,1.10293,0,0,0-.39644.19461.39642.39642,0,0,0,.12253.0865c.52618-.173,1.09561-.04325,1.61459-.23787a.18753.18753,0,0,0,0-.07928M285.46276,66.56343l-.32436-.96587a.97968.97968,0,0,0-.0865-.173.28832.28832,0,0,0-.37481-.14416.18741.18741,0,0,0-.11533.29553l.89379.9875m5.04559,21.624a.97291.97291,0,0,0,.05767-.23065V86.79626a.72082.72082,0,0,0-.10812-.209.6055.6055,0,0,0-.0865.43969c.00721.12974.05766.23786.05766.382s-.05766.29553-.05766.43969a1.77357,1.77357,0,0,0,.05766.33877h.0865m4.0653-20.52834a.22342.22342,0,0,0-.19461.28111,1.27633,1.27633,0,0,0,.137.22345c.137.209.30274.29553.41086.209a.38922.38922,0,0,0,0-.47573.33877.33877,0,0,0-.346-.23065M284.63384,98.43a13.57624,13.57624,0,0,0,1.36952,0,.35337.35337,0,0,0,.07929-.11533,2.34249,2.34249,0,0,0-.9875,0,2.234,2.234,0,0,0-.46131.1802m10.257-60.11466a3.45256,3.45256,0,0,0,.9875-.92983.38939.38939,0,0,0-.1802,0q-.35319.3676-.7208.7208a.8939.8939,0,0,0-.06487.2739m5.80244,3.92116-.01514.00685a.3676.3676,0,0,0-.17227.4905.33158.33158,0,0,0,.23786.16578.18021.18021,0,0,0,.18741-.209.41086.41086,0,0,0-.23065-.45411M282.039,100.01573c-.30274-.05766-.60547-.12253-.90821-.16578a.19463.19463,0,0,0-.25228.18741.89381.89381,0,0,0,.27391.05766,5.99647,5.99647,0,0,0,.87216,0,.16547.16547,0,0,0,0-.06487M297.26224,60.379a3.06454,3.06454,0,0,0-.31.28832.18022.18022,0,0,0,.05767.2739.20181.20181,0,0,0,.32436-.07208,2.30751,2.30751,0,0,0,.05766-.41806l-.12974-.06487m-1.1605,6.06193a3.951,3.951,0,0,0,.29553.37481c.06488,0,.18741.12254.2667,0a.36037.36037,0,0,0,0-.29553c-.0937-.20183-.25948-.2739-.555-.11533m-14.4232,36.076a.72081.72081,0,0,0-.16579.77126.9154.9154,0,0,0,.16579-.77126m17.42893-44.15617a.47572.47572,0,0,0-.12974.7208.44688.44688,0,0,0,.12974-.7208M290.69576,83.113c-.23787.18741-.14416.32437,0,.52619a.47576.47576,0,0,0,0-.52619m5.38437-43.64439a.4397.4397,0,0,0,.3604-.38923.46129.46129,0,0,0-.3604.38923m-4.714,34.7209a.245.245,0,0,0,0,.08649.15853.15853,0,0,0,.10812,0,.44679.44679,0,0,0,.11533-.15136.173.173,0,0,0-.036-.10091.06484.06484,0,0,0-.05767,0l-.12253.16578m-21.22033,36.04a.59112.59112,0,0,0-.11533.13695.209.209,0,0,0,.05046.10091.67745.67745,0,0,0,.12253-.11533.33863.33863,0,0,0-.06487-.12253M310.1213,47.69292l-.2739.12253v.04325a.61206.61206,0,0,0,.173,0,.72054.72054,0,0,0,.14415-.10812l-.05766-.05766m-21.76093,56.28-.10812.54781.02164-.01451a.382.382,0,0,0,.08648-.5333m25.30726-23.39714.07208.06487.05045-.0937a.08651.08651,0,0,0-.04324,0l-.07929.06487M279.48012,38.66851l.06487.10812a.36746.36746,0,0,0,.0865-.08649.23073.23073,0,0,0,0-.09371l-.137.07208m-21.833,48.30076.07208.11533a.77821.77821,0,0,0,.10812-.12975.26677.26677,0,0,0-.06487-.08649l-.12254.0937m55.3718-34.39654.04324-.30994c-.14415.10812-.15857.1802-.04324.30994M308.586,37.83959h-.05767v.04325Zm2.8904,14.09163H311.462v.05045ZM290.566,79.55945h.05046V79.473a.12248.12248,0,0,0-.05767,0,.09375.09375,0,0,0,0,.05045m.00721,5.26184.05046.10091a.12263.12263,0,0,0,.036-.04325.64885.64885,0,0,0-.05046-.10091l-.036.05046m23.06558-39.39168V45.444h.05766a.11522.11522,0,0,0,0-.04325h-.05766m-29.60323,53.022v.036h.00721Z"/>
      <path class="cls-1" d="M311.30341,67.87529l-.346.05046a3.222,3.222,0,0,0-1.4416.5406.46854.46854,0,0,0-.2595.44691,1.56427,1.56427,0,0,0,.04325.31715c.11533.41086.23787.82171.346,1.23978a1.58576,1.58576,0,0,1,.08649,1.074,1.87442,1.87442,0,0,1-.32435.05045c-.41086-.036-.8145-.036-1.22536-.036a3.48872,3.48872,0,0,1-1.67946-.39644,2.32823,2.32823,0,0,1-.865-.5406,1.44126,1.44126,0,0,0-.22345-.12975c-.26669-.22345-.52618-.43968-.77846-.67755a.94433.94433,0,0,1-.14416-.2667,1.36958,1.36958,0,0,1,.7208-.209,6.42875,6.42875,0,0,0,1.19653-.23066,8.99527,8.99527,0,0,0,2.00382-1.03074,3.92838,3.92838,0,0,1,1.82362-.57664,1.49924,1.49924,0,0,1,1.06679.36761m-2.79671,2.739c-.0937-.33157-.15857-.60547-.25228-.865a.26667.26667,0,0,0-.35319-.19461l-1.44159.49014a1.91022,1.91022,0,0,0,.32435.346,2.22011,2.22011,0,0,0,1.74434.19461"/>
      <path class="cls-1" d="M310.07805,66.22467a8.55579,8.55579,0,0,0-2.69579.29553,4.18773,4.18773,0,0,0-1.4416.61268c-.19461.13695-.41086.23786-.61268.36761a1.99645,1.99645,0,0,0-.39644.32435.382.382,0,0,0,.0865.56944.64872.64872,0,0,0,.77846.04324c.28832-.18741.59827-.346.89379-.51177a8.08756,8.08756,0,0,1,2.60209-.91541,4.79323,4.79323,0,0,1,2.05427,0,1.14619,1.14619,0,0,0,.63431,0,.72079.72079,0,0,0,.66313-.28111.88659.88659,0,0,0-.61989-.2739,4.36792,4.36792,0,0,0-1.4416-.20182,4.51756,4.51756,0,0,0-.51176,0"/>
    </g>
    <line class="cls-2" x1="348.05568" y1="117.18203" x2="1170.49068" y2="117.18203"/>
  </g>
</svg>
